<svg width="13" height="15" fill="none" xmlns="http://www.w3.org/2000/svg"><path d="M8.121 7.422c0-.438-.328-.793-.71-.793-.411 0-.74.355-.74.793 0 .41.329.766.74.766.382 0 .71-.356.71-.766zM4.84 6.629c-.383 0-.711.355-.711.793 0 .41.328.766.71.766.411 0 .712-.356.712-.766.027-.438-.301-.793-.711-.793zm7.41-4.43c0-.793-.656-1.449-1.45-1.449H1.423C.629.75 0 1.406 0 2.2v9.46c0 .82.629 1.45 1.422 1.45h7.93l-.356-1.286c2.05 1.887 1.477 1.395 3.254 2.926V2.2zm-1.996 6.645s-.602 1.011-2.16 1.066c0 0-.246-.3-.465-.574.93-.246 1.285-.82 1.285-.82-.3.191-.574.3-.82.41-1.504.629-3.172.41-4.375-.246 0-.028-.164-.11-.274-.192 0 0 .328.575 1.23.848-.218.246-.464.574-.464.574-1.559-.055-2.133-1.066-2.133-1.066 0-2.27.985-4.074.985-4.074 1.011-.766 1.967-.74 1.967-.74l.082.082c-1.258.356-1.832.903-1.832.903s.137-.082.41-.192c1.614-.71 3.555-.71 5.223.192 0 0-.547-.52-1.75-.875l.11-.11s.956-.027 1.968.739c0 0 1.012 1.804 1.012 4.074z" fill="#5965F1"/></svg>