<svg width="16" height="14" fill="none" xmlns="http://www.w3.org/2000/svg"><path fill-rule="evenodd" clip-rule="evenodd" d="M5.607.498a11.68 11.68 0 014.786 0l.33.069a5.99 5.99 0 013.375 2.002c.136.162.09.397-.09.516L9.032 6.381c-.62.41-1.443.41-2.062 0L1.991 3.085c-.18-.119-.225-.354-.089-.516A5.99 5.99 0 015.278.567l.33-.07zM1.494 4.139c-.209-.138-.5-.059-.578.17a5.402 5.402 0 00-.118.39 9.048 9.048 0 000 4.603c.543 2.07 2.278 3.67 4.48 4.131l.33.07c1.575.33 3.209.33 4.785 0l.33-.07c2.2-.461 3.936-2.062 4.48-4.131a9.049 9.049 0 000-4.604 5.389 5.389 0 00-.119-.39c-.079-.228-.37-.307-.578-.169l-4.788 3.17a3.136 3.136 0 01-3.436 0L1.494 4.14z" fill="#fff"/></svg>