<svg xmlns="http://www.w3.org/2000/svg" width="315" height="315" fill="none"><path fill="#2891F9" d="M52.5 96.924l105 60.6v40.4l-70-40.4v80.8l-35-20.2v-121.2z"/><path fill="#2BBDF7" d="M87.5 238.324v-80.8l35 20.2v40.4l-35 20.2z"/><path fill="#2B6DEF" d="M52.5 96.924l35-20.2 105 60.6-35 20.2-105-60.6z"/><path fill="#2BBDF7" d="M157.5 157.524l35-20.2v40.4l-35 20.2v-40.4z"/><path fill="#2891F9" d="M192.5 96.924v121.2l35 20.2v-121.2l-35-20.2z"/><path fill="#2BBDF7" d="M262.5 96.924l-35 20.2v121.2l35-20.2v-121.2z"/><path fill="#2B6DEF" d="M227.5 76.724l35 20.2-35 20.2-35-20.2 35-20.2z"/></svg>