<svg width="26" height="26" fill="none" xmlns="http://www.w3.org/2000/svg"><path fill-rule="evenodd" clip-rule="evenodd" d="M9.782 3.622a14.09 14.09 0 016.436 0 8.266 8.266 0 016.16 6.16c.496 2.117.496 4.32 0 6.436a8.266 8.266 0 01-6.16 6.16c-2.117.496-4.32.496-6.436 0a8.266 8.266 0 01-6.16-6.16 14.09 14.09 0 010-6.436 8.266 8.266 0 016.16-6.16zM13 10.926a1.037 1.037 0 100-2.074 1.037 1.037 0 000 2.074zm0 .778c.43 0 .778.348.778.777v4.149a.778.778 0 01-1.556 0v-4.15c0-.43.348-.777.778-.777z" fill="#FA5555"/></svg>