<svg width="219" height="159" fill="none" xmlns="http://www.w3.org/2000/svg"><g clip-path="url(#clip0)"><path d="M139.558 119.197v38.329H43.687c-10.923 0-19.81-8.598-19.81-19.165 0-10.566 8.887-19.164 19.81-19.164h95.871z" fill="#F2F2F2"/><path d="M141.913 157.231a1.479 1.479 0 01-1.472 1.474H41.979a20.148 20.148 0 01-14.257-5.915 20.214 20.214 0 01-5.906-14.281 20.214 20.214 0 015.906-14.281 20.148 20.148 0 0114.257-5.915h98.462a1.47 1.47 0 011.472 1.474 1.473 1.473 0 01-1.472 1.474H41.979a17.208 17.208 0 00-12.176 5.052 17.263 17.263 0 00-5.044 12.196 17.26 17.26 0 005.044 12.196 17.204 17.204 0 0012.176 5.052h98.462a1.479 1.479 0 011.472 1.474z" fill="url(#paint0_linear)"/><path d="M139.558 128.042H36.534a.295.295 0 010-.589h103.024a.294.294 0 110 .589zm0 7.076H36.534a.295.295 0 010-.589h103.024a.294.294 0 110 .589zm0 7.077H36.534a.294.294 0 110-.59h103.024a.294.294 0 110 .59zm0 7.075H36.534a.295.295 0 010-.589h103.024a.294.294 0 110 .589z" fill="#CCC"/><path d="M213.652 126.412l-24.009 29.846-74.653-60.25c-8.506-6.864-10.04-19.144-3.421-27.372 6.619-8.228 18.924-9.338 27.43-2.473l74.653 60.249z" fill="#F2F2F2"/><path d="M214.737 126.473h0a1.23 1.23 0 01.406 1.299 1.216 1.216 0 01-.587.73 1.215 1.215 0 01-.93.1 1.23 1.23 0 01-.422-.222h0l-76.67-61.878a17.466 17.466 0 00-12.832-3.777 17.461 17.461 0 00-11.738 6.42 17.519 17.519 0 00-1.727 19.37 17.494 17.494 0 004.375 5.237s0 0 0 0l76.67 61.878a1.229 1.229 0 01.185 1.722 1.223 1.223 0 01-1.718.185l-76.67-61.878a19.967 19.967 0 01-3.012-28.047 19.892 19.892 0 0128-3.017l76.67 61.878z" stroke="#000" stroke-width=".5"/><path d="M208.111 133.299l-80.222-64.744a.284.284 0 01-.108-.198.301.301 0 01.151-.29.293.293 0 01.326.028l80.223 64.745a.301.301 0 01.098.313.301.301 0 01-.142.176.297.297 0 01-.326-.029v-.001zm-4.432 5.511l-80.223-64.745a.296.296 0 01.153-.523.296.296 0 01.217.064l80.222 64.744a.286.286 0 01.074.089.285.285 0 01.025.224.3.3 0 01-.252.21.293.293 0 01-.216-.063zm-4.432 5.51l-80.223-64.745a.293.293 0 01-.108-.198.292.292 0 01.261-.325.293.293 0 01.216.063l80.223 64.745a.301.301 0 01.098.313.3.3 0 01-.251.21.297.297 0 01-.216-.063zm-4.433 5.51l-80.223-64.745a.304.304 0 01-.108-.198.296.296 0 01.478-.261l80.223 64.745c.03.024.055.054.073.088a.284.284 0 01.025.224.279.279 0 01-.054.102.303.303 0 01-.197.109.297.297 0 01-.217-.064zm23.892 9.17H.294a.294.294 0 110-.59h218.412a.294.294 0 010 .59z" fill="#CCC"/><path d="M99.267 102.418l-.001 12.501h-2.894l-1.539-12.501h4.434z" fill="#F4F7FA" stroke="#000" stroke-width=".5"/><path d="M93.747 114.456h6.24v3.592H89.919a3.845 3.845 0 012.36-3.3 3.832 3.832 0 011.468-.292zm-28.859-12.038l-.001 12.501h-2.894l-1.54-12.501h4.435z" fill="#F4F7FA" stroke="#000" stroke-width=".5"/><path d="M59.368 114.456h6.24v3.592H55.54a3.843 3.843 0 013.828-3.592z" fill="#F4F7FA" stroke="#000" stroke-width=".5"/><path d="M76.377 18.732v-1.475c0-2.521 1-4.94 2.78-6.723a9.485 9.485 0 0113.425 0 9.516 9.516 0 012.78 6.723v1.475a6.861 6.861 0 01-2.004 4.847 6.838 6.838 0 01-4.84 2.008H83.22a6.834 6.834 0 01-4.839-2.008 6.854 6.854 0 01-2.004-4.847z" fill="#7247FF"/><path d="M92.85 18.853c0 3.861-3.126 6.991-6.98 6.991-3.855 0-6.98-3.13-6.98-6.991 0-3.862 3.125-6.992 6.98-6.992 3.854 0 6.98 3.13 6.98 6.992zM45.923 45.536c.057-.605.33-1.17.767-1.59l.027-.024a2.509 2.509 0 013.822.45l.091.14.165-.031 6.004-1.138 1.417 3.125-8.458 1.48-.042.007-.038.022a2.52 2.52 0 01-3.278-.708 2.533 2.533 0 01-.477-1.733z" fill="#F4F7FA" stroke="#000" stroke-width=".5"/><mask id="a" fill="#fff"><path d="M80.233 30.654l.081.123-10.163 6.706-17.148 5.485a1.034 1.034 0 00-.71 1.102l.374 3.227a1.033 1.033 0 001.239.89l16.14-3.465a5.827 5.827 0 002.17-.956l11.417-8.137a2.953 2.953 0 001.224-2.638 2.944 2.944 0 00-1.642-2.403 2.931 2.931 0 00-2.901.19l-.081-.124z"/></mask><path d="M80.233 30.654l.081.123-10.163 6.706-17.148 5.485a1.034 1.034 0 00-.71 1.102l.374 3.227a1.033 1.033 0 001.239.89l16.14-3.465a5.827 5.827 0 002.17-.956l11.417-8.137a2.953 2.953 0 001.224-2.638 2.944 2.944 0 00-1.642-2.403 2.931 2.931 0 00-2.901.19l-.081-.124z" fill="#F4F7FA"/><path d="M80.233 30.654l.417-.275-.835.55.418-.275zm.081.123l.275.418.418-.276-.276-.417-.417.275zm-10.163 6.706l.153.476.065-.02.058-.039-.276-.417zm-17.148 5.485l-.153-.476.153.476zm-.71 1.102l-.497.057.497-.057zm.374 3.227l-.497.058.497-.057zm1.239.89l.105.49-.105-.49zm16.14-3.465l-.105-.489.104.49zm2.17-.956l-.291-.408.29.408zm11.417-8.137l.29.407-.29-.407zm1.224-2.638l.498-.04v-.001l-.498.04zm-4.543-2.214l-.417.275.275.418.418-.276-.276-.417zm-.498.152l.08.123.835-.55-.08-.123-.835.55zm.223-.57l-10.163 6.707.55.834 10.163-6.705-.55-.835zm-10.04 6.648L52.85 42.492l.305.952 17.148-5.485-.304-.952zm-17.15 5.485a1.533 1.533 0 00-.818.63l.84.54a.532.532 0 01.285-.218l-.307-.952zm-.818.63a1.536 1.536 0 00-.235 1.005l.993-.114a.535.535 0 01.082-.35l-.84-.542zm-.235 1.006l.374 3.227.993-.115-.374-3.227-.993.115zm.374 3.227c.025.212.093.417.201.6l.862-.506a.532.532 0 01-.07-.21l-.993.116zm.201.6c.108.184.254.344.427.468l.584-.812a.53.53 0 01-.149-.162l-.862.507zm.427.468c.173.125.37.212.58.255l.204-.979a.53.53 0 01-.2-.088l-.584.812zm.58.255c.209.044.424.043.633-.002l-.21-.977a.529.529 0 01-.219 0l-.204.98zm.633-.002l16.14-3.465-.21-.977-16.14 3.465.21.977zm16.139-3.465a6.325 6.325 0 002.356-1.039l-.581-.813a5.325 5.325 0 01-1.984.874l.209.978zm2.355-1.038l11.418-8.137-.58-.814-11.418 8.136.58.815zm11.419-8.138a3.44 3.44 0 001.12-1.353l-.906-.421a2.452 2.452 0 01-.797.961l.583.813zm1.12-1.353c.252-.54.359-1.137.311-1.73l-.997.079c.034.422-.042.846-.22 1.23l.907.42zm.311-1.732a3.444 3.444 0 00-.589-1.66l-.825.564c.239.35.383.755.417 1.178l.997-.082zm-.589-1.66a3.438 3.438 0 00-1.332-1.152l-.438.9c.38.185.706.466.945.816l.825-.564zm-1.332-1.152a3.432 3.432 0 00-1.727-.34l.065.999a2.43 2.43 0 011.224.24l.438-.899zm-1.727-.34a3.432 3.432 0 00-1.668.562l.55.834c.354-.233.761-.37 1.183-.397l-.065-.998zm-.975.704l-.082-.123-.835.55.082.123.835-.55z" fill="#000" mask="url(#a)"/><path d="M100.374 110.084a1.316 1.316 0 00.875-1.399c-.931-8.253-5.881-49.755-11.903-56.335l11.028 57.734zm0 0l-3.725 1.32 3.725-1.32zm-11.19-57.542c.713.791 1.429 2.116 2.132 3.872.709 1.768 1.397 3.95 2.058 6.418 1.323 4.935 2.533 10.989 3.586 17.1 2.105 12.223 3.575 24.656 4.04 28.781l.001.001a1.073 1.073 0 01-.709 1.134l-.001.001-3.726 1.319h0a1.078 1.078 0 01-1.342-.582L79.798 72.408h0l-.003-.006a.692.692 0 00-1.294.07l-12.585 37.167h0l-.002.007a1.083 1.083 0 01-.553.65 1.085 1.085 0 01-.851.042s0 0 0 0l-4.221-1.586h0a1.074 1.074 0 01-.692-.886h0c-.47-4.101.201-9.788 1.488-16.04 1.286-6.246 3.18-13.031 5.14-19.316 3.755-12.038 7.747-22.227 8.15-23.249l14.808 3.281z" fill="#F4F7FA" stroke="#000" stroke-width=".5"/><path d="M92.416 29.17a7.14 7.14 0 00-5.926-1.466c-1.42.28-2.82.641-4.198 1.083l10.124.383zm0 0a7.228 7.228 0 011.962 2.48m-1.962-2.48l1.962 2.48m0 0a7.24 7.24 0 01.716 3.084l-.716-3.083zm-19.91 18.22c.495-.819 1.063-1.912 1.427-2.875.184-.49.321-.959.364-1.349.021-.195.02-.383-.018-.549a.734.734 0 00-.269-.44h0c-1.3-.962-1.956-2.559-1.898-4.812.127-4.89 3.454-9.24 8.29-10.818l.004-.001a37.268 37.268 0 014.17-1.076h.002a6.885 6.885 0 015.718 1.414v.001a6.978 6.978 0 012.586 5.371h0c.051 5.334-.772 12.702-4.921 17.741a1.06 1.06 0 01-.627.365h0a35.65 35.65 0 01-6.09.57c-1.816 0-3.718-.181-5.314-.728-1.577-.54-2.826-1.425-3.424-2.814z" fill="#F4F7FA" stroke="#000" stroke-width=".5"/><path d="M82.086 53.53v-.002a2.56 2.56 0 013.13-1.79c.134.037.263.085.387.143l.152.07.123-.111 4.56-4.158 2.843 1.918-6.488 5.751-.033.029-.02.037a2.56 2.56 0 01-2.9 1.232 2.514 2.514 0 01-1.526-1.192l-.214.12.214-.12a2.523 2.523 0 01-.228-1.927z" fill="#F4F7FA" stroke="#000" stroke-width=".5"/><path d="M89.67 53.266h0a1.07 1.07 0 01-.68-.243h0l-1.855-1.519a1.077 1.077 0 01-.295-.38l-.226.105.226-.105a1.078 1.078 0 01.015-.938l-.223-.112.223.113c.073-.146.177-.272.306-.371l-.152-.198.152.198 7.783-5.98h0a.693.693 0 00.131-.965h0l-4.804-6.362h0a3.672 3.672 0 01.244-4.725h.001a3.647 3.647 0 014.913-.407l.005.005 5.006 7.18.021.03.029.023a4.225 4.225 0 011.617 3.392 4.237 4.237 0 01-1.717 3.341h0l-.003.003-10.079 7.705c-.185.136-.409.21-.638.21z" fill="#F4F7FA" stroke="#000" stroke-width=".5"/><path d="M79.466 16.815v-3.593l6.403-2.8 6.107 2.8v3.593a.59.59 0 01-.59.59H80.055a.588.588 0 01-.588-.59z" fill="#7247FF"/><path d="M85.575 8.226c-.941-3.019 1.036-6.478 3.96-7.673 2.923-1.195 6.42-.36 8.887 1.614 2.467 1.974 3.998 4.931 4.809 7.988.81 3.056.964 6.243 1.114 9.402 3.592.661 6.035 4.928 4.791 8.367-1.244 3.44-5.85 5.148-9.03 3.35-3.18-1.797-4.102-6.63-1.806-9.474a7.787 7.787 0 00.172-9.554 7.752 7.752 0 00-9.205-2.508c-1.77.742-3.992-1.185-3.692-1.512z" fill="#7247FF"/><path d="M45.217 29.802c-4.3-.028-8.547-.96-12.465-2.734a1.318 1.318 0 01-.781-1.21V15.121a1.33 1.33 0 011.325-1.327h23.842a1.325 1.325 0 011.325 1.327v10.737a1.32 1.32 0 01-.78 1.21 30.701 30.701 0 01-12.466 2.734z" fill="url(#paint1_linear)"/><path d="M45.214 21.104c-.177 0-.352-.035-.515-.103l-18.907-7.99a1.325 1.325 0 01-.568-1.986c.152-.217.366-.383.613-.477l18.907-7.184c.305-.117.642-.116.946.002l18.654 7.184a1.324 1.324 0 01.849 1.214 1.329 1.329 0 01-.804 1.244l-18.654 7.99c-.165.07-.342.106-.521.106z" fill="url(#paint2_linear)"/><path d="M34.179 27.799c.975 0 1.766-.792 1.766-1.77a1.767 1.767 0 10-3.532.001c0 .977.79 1.769 1.766 1.769z" fill="#3F3D56"/><path opacity=".2" d="M64.453 11.874L45.8 19.864a1.176 1.176 0 01-.92.002l-18.907-7.99a1.156 1.156 0 01-.563-.495 1.18 1.18 0 00.563 1.675l18.907 7.99a1.177 1.177 0 00.92-.003l18.654-7.99a1.177 1.177 0 00.558-1.672 1.157 1.157 0 01-.558.493z" fill="#000"/><path d="M34.327 26.023a.294.294 0 00.295-.295v-9.865l9.708-3.543a.294.294 0 00.215-.5.294.294 0 00-.206-.09l-9.709 3.543a.576.576 0 00-.422.17.587.587 0 00-.175.42v9.865a.295.295 0 00.294.295z" fill="#3F3D56"/></g><defs><linearGradient id="paint0_linear" x1="21.168" y1="120.292" x2="146.292" y2="122.901" gradientUnits="userSpaceOnUse"><stop stop-color="#4614E8"/><stop offset="1" stop-color="#BCA7FF"/></linearGradient><linearGradient id="paint1_linear" x1="31.828" y1="14.578" x2="59.437" y2="14.899" gradientUnits="userSpaceOnUse"><stop stop-color="#4614E8"/><stop offset="1" stop-color="#BCA7FF"/></linearGradient><linearGradient id="paint2_linear" x1="24.765" y1="4.15" x2="66.667" y2="4.813" gradientUnits="userSpaceOnUse"><stop stop-color="#4614E8"/><stop offset="1" stop-color="#BCA7FF"/></linearGradient><clipPath id="clip0"><path fill="#fff" d="M0 0h219v159H0z"/></clipPath></defs></svg>