<svg width="186" height="127" fill="none" xmlns="http://www.w3.org/2000/svg"><g clip-path="url(#clip0)"><path d="M182.674 115.49c-1.273 4.411-4.988 7.498-8.864 10.121-.541.366-1.083.724-1.624 1.074l-.012.006-.076.05-.334.216.06.027s.06.032-.005.005c-.02-.008-.04-.015-.059-.024-2.252-.907-4.544-1.881-6.269-3.581-1.791-1.765-2.837-4.533-1.867-6.852.127-.304.288-.592.479-.86.079-.113.164-.22.252-.326a4.747 4.747 0 016.751-.607 4.746 4.746 0 011.407 2.049c.284-2.649-1.902-4.868-4.006-6.505-2.105-1.636-4.496-3.418-4.903-6.052-.228-1.466.283-2.886 1.212-4.027l.087-.103a6.934 6.934 0 014.455-2.388c3.228-.335 6.363 1.372 8.707 3.614 3.774 3.607 6.056 9.148 4.609 14.163z" fill="#F2F2F2"/><path d="M176.608 109.721a11.76 11.76 0 011.411 3.111c.268.983.387 2.001.354 3.019a13.093 13.093 0 01-1.717 5.961 18.852 18.852 0 01-2.846 3.799c-.541.367-1.083.725-1.624 1.074l-.012.007a217.612 217.612 0 00-.41.265s.12.059.055.033l-.059-.024a10.416 10.416 0 00-3.338-8.972 10.52 10.52 0 00-4.318-2.322c.078-.112.163-.22.251-.325.619.173 1.221.401 1.8.68a10.69 10.69 0 014.832 4.654 10.906 10.906 0 011.189 5.99c.093-.084.186-.169.275-.254 1.711-1.594 3.231-3.423 4.26-5.534a12.178 12.178 0 001.277-5.765c-.084-2.178-.953-4.195-2.21-5.951a25.5 25.5 0 00-4.839-4.983 29.035 29.035 0 00-6.018-3.712.208.208 0 01-.105-.267.175.175 0 01.087-.103.175.175 0 01.068-.013.153.153 0 01.066.019 29.32 29.32 0 016.852 4.369c1.784 1.52 3.464 3.256 4.719 5.244z" fill="#fff"/><path d="M155.094 0H2.196A2.2 2.2 0 000 2.194v103.513a2.194 2.194 0 002.196 2.194h152.898a2.186 2.186 0 001.718-.83c.131-.16.237-.339.314-.531.111-.264.167-.547.167-.833V2.194A2.199 2.199 0 00155.094 0zm1.571 105.707c.001.306-.09.605-.259.861a1.632 1.632 0 01-.595.533 1.555 1.555 0 01-.717.174H2.196a1.574 1.574 0 01-1.569-1.568V2.194A1.569 1.569 0 012.197.627h152.897a1.572 1.572 0 011.571 1.567v103.513z" fill="#3F3D56"/><path d="M156.978 8.795H.313v.628h156.665v-.628z" fill="#3F3D56"/><path d="M7.284 4.705a1.633 1.633 0 11-3.266-.001 1.633 1.633 0 013.266.001zm5.416 0a1.633 1.633 0 11-3.266-.002 1.633 1.633 0 013.266.002zm5.416 0a1.633 1.633 0 11-3.266-.002 1.633 1.633 0 013.266.002z" stroke="#000" stroke-width=".5"/><path d="M101.464 44.131a5.085 5.085 0 01-4.695-3.134 5.074 5.074 0 013.704-6.922 5.086 5.086 0 015.217 2.158c.558.835.856 1.817.856 2.821a5.077 5.077 0 01-1.49 3.588 5.09 5.09 0 01-3.592 1.49zm0-9.673a4.604 4.604 0 00-4.25 2.837 4.593 4.593 0 003.353 6.267 4.604 4.604 0 004.722-1.955 4.588 4.588 0 00-.573-5.801 4.61 4.61 0 00-3.252-1.348z" fill="#6C63FF"/><path d="M100.985 40.899a.501.501 0 01-.302-.1l-.006-.004-1.138-.87a.505.505 0 11.616-.801l.737.564 1.741-2.27a.505.505 0 01.708-.093h.001l-.011.015.011-.015a.504.504 0 01.093.708l-2.048 2.668a.499.499 0 01-.402.197v.001z" fill="#6C63FF"/><path d="M116.005 44.131a5.077 5.077 0 111.944-9.768 5.078 5.078 0 013.137 4.691 5.088 5.088 0 01-5.081 5.077zm0-9.673a4.603 4.603 0 00-4.25 2.837 4.59 4.59 0 00.997 5.009 4.6 4.6 0 007.853-3.25 4.603 4.603 0 00-4.6-4.596z" fill="#E6E6E6"/><path d="M117.834 40.811a.326.326 0 01-.46 0l-1.22-1.218a.145.145 0 00-.205 0l-1.219 1.218a.326.326 0 01-.555-.23c0-.086.034-.169.095-.23l1.219-1.218a.142.142 0 00.043-.102.142.142 0 00-.043-.103l-1.219-1.218a.325.325 0 11.46-.46l1.219 1.219a.144.144 0 00.205 0l1.22-1.218a.324.324 0 01.46 0 .324.324 0 010 .46l-1.22 1.217a.145.145 0 000 .205l1.22 1.218a.324.324 0 010 .46z" fill="#E6E6E6"/><path d="M101.464 60.25a5.084 5.084 0 01-4.695-3.134 5.074 5.074 0 013.704-6.923 5.085 5.085 0 015.217 2.16c.558.834.856 1.816.856 2.82a5.077 5.077 0 01-1.49 3.588 5.09 5.09 0 01-3.592 1.489zm0-9.673a4.604 4.604 0 00-4.25 2.837 4.592 4.592 0 003.353 6.266 4.605 4.605 0 004.722-1.954 4.588 4.588 0 00-.573-5.801 4.61 4.61 0 00-3.252-1.348z" fill="#6C63FF"/><path d="M100.985 57.018a.501.501 0 01-.302-.1l-.006-.005-1.138-.87a.505.505 0 11.616-.8l.737.564 1.741-2.27a.505.505 0 01.708-.093h.001l-.011.015.011-.015a.504.504 0 01.093.708l-2.048 2.668a.5.5 0 01-.402.197z" fill="#6C63FF"/><path d="M116.005 60.25a5.077 5.077 0 111.944-9.767 5.077 5.077 0 013.137 4.69 5.088 5.088 0 01-5.081 5.077zm0-9.673a4.602 4.602 0 00-4.25 2.837 4.589 4.589 0 00.997 5.008 4.601 4.601 0 007.853-3.25 4.603 4.603 0 00-4.6-4.595z" fill="#E6E6E6"/><path d="M117.834 56.93a.326.326 0 01-.46 0l-1.22-1.22a.145.145 0 00-.205 0l-1.219 1.22a.326.326 0 01-.46-.46l1.219-1.219a.146.146 0 00.043-.102.146.146 0 00-.043-.102l-1.219-1.219a.324.324 0 01.23-.555c.086 0 .169.035.23.096l1.219 1.218a.145.145 0 00.205 0l1.22-1.218a.324.324 0 01.555.23.325.325 0 01-.095.23l-1.22 1.218a.145.145 0 000 .204l1.22 1.219a.325.325 0 010 .46zm-16.37 19.438a5.085 5.085 0 01-4.695-3.134 5.074 5.074 0 013.704-6.922 5.086 5.086 0 015.217 2.159c.558.835.856 1.816.856 2.82a5.077 5.077 0 01-1.49 3.589 5.09 5.09 0 01-3.592 1.488zm0-9.672a4.604 4.604 0 00-4.25 2.837 4.593 4.593 0 003.353 6.266 4.604 4.604 0 004.722-1.954 4.588 4.588 0 00-.573-5.802 4.61 4.61 0 00-3.252-1.348z" fill="#E6E6E6"/><path d="M100.985 73.136a.503.503 0 01-.302-.1l-.006-.004-1.138-.87a.505.505 0 11.616-.801l.737.564 1.741-2.27a.505.505 0 01.708-.093h.001l-.011.015.011-.015a.504.504 0 01.093.708l-2.048 2.669a.5.5 0 01-.402.197zm15.02 3.232a5.077 5.077 0 111.944-9.768 5.078 5.078 0 013.137 4.691 5.088 5.088 0 01-5.081 5.077zm0-9.672a4.603 4.603 0 00-4.25 2.837 4.59 4.59 0 00.997 5.008 4.6 4.6 0 007.853-3.25 4.603 4.603 0 00-4.6-4.596z" fill="#E6E6E6"/><path d="M117.834 73.048a.326.326 0 01-.46 0l-1.22-1.219a.144.144 0 00-.205 0l-1.219 1.219a.326.326 0 01-.555-.23c0-.086.034-.169.095-.23l1.219-1.218a.146.146 0 00.043-.103.146.146 0 00-.043-.102l-1.219-1.218a.324.324 0 11.46-.46l1.219 1.219a.145.145 0 00.205 0l1.22-1.219a.324.324 0 01.554.23.324.324 0 01-.094.23l-1.22 1.218a.145.145 0 000 .205l1.22 1.218a.325.325 0 010 .46z" fill="#E6E6E6"/><path d="M185.748 126.926h-95.97a.253.253 0 01-.252-.252.25.25 0 01.252-.252h95.97a.252.252 0 010 .504z" fill="#3F3D56"/><path d="M103.57 58.03l-.028-.017a2.294 2.294 0 011.883-4.146l.042.013.043-.002 8.021-.32 2.125 3.463-8.532-.284-.178-.005-.064.166a2.274 2.274 0 01-1.391 1.338 2.286 2.286 0 01-1.921-.206zm50.407 19.517l-.001.002a2.297 2.297 0 01-3.777-2.555l.02-.038.005-.043 1.089-7.947 3.786-1.483-1.774 8.343-.037.174.153.092a2.278 2.278 0 011.011 2.589c-.093.32-.255.616-.475.867zm-21.136 34.36v11.401h-2.617l-1.408-11.401h4.025z" fill="#F4F7FA" stroke="#000" stroke-width=".5"/><path d="M124.173 126.299a3.626 3.626 0 013.624-3.498h5.831v3.498h-9.455zm23.782-14.392l-.001 11.401h-2.617l-1.407-11.401h4.025z" fill="#F4F7FA" stroke="#000" stroke-width=".5"/><path d="M139.286 126.299a3.626 3.626 0 013.624-3.498h5.832v3.498h-9.456zM129.43 75.82c7.549-2.712 13.761-2.493 19.025.612l.735 39.171h0a.89.89 0 01-.252.634.886.886 0 01-.631.265h-3.686a.889.889 0 01-.867-.713s0 0 0 0l-5.022-25.52a.629.629 0 00-1.239.046L129.43 75.82zm0 0l-1.227 40.19s0 0 0 0a.884.884 0 00.848.909m.379-41.1l-.379 41.1m0 0h.001l4.368.175h.002l.035.001a.893.893 0 00.878-.777v-.001l3.158-26.002-8.442 26.604zm14.551-82.853a5.934 5.934 0 01-5.937 5.93 5.933 5.933 0 01-5.936-5.93 5.933 5.933 0 015.936-5.931 5.934 5.934 0 015.937 5.93zM108.819 56.71v-.001a.876.876 0 010-.527l.64-2.051s0 0 0 0a.889.889 0 01.805-.62h.001l8.116-.358.054-.002.049-.025 13.149-6.735a3.405 3.405 0 014.258 2.214 3.404 3.404 0 01-.222 2.593 3.404 3.404 0 01-1.994 1.676l-.026.009-.024.013-8.07 4.677h0a11.44 11.44 0 01-7.936 1.329h0l-8.127-1.59s0 0 0 0 0 0 0 0a.89.89 0 01-.339-.145l-.143.204.143-.204a.895.895 0 01-.25-.27h0a.862.862 0 01-.084-.188zm44.997 15.072h0a.886.886 0 01-.527.023s0 0 0 0l-2.079-.552s0 0 0 0a.89.89 0 01-.653-.777s0 0 0 0l-.704-8.086-.005-.055-.027-.047-7.295-12.839a3.388 3.388 0 012.032-4.343 3.405 3.405 0 014.364 2.029l.01.026.015.023 5.02 7.856h0a11.407 11.407 0 011.667 7.865h0l-1.244 8.18a.889.889 0 01-.389.605H154a.855.855 0 01-.184.092z" fill="#F4F7FA" stroke="#000" stroke-width=".5"/><path d="M131.083 45.211l-.001.001a10.347 10.347 0 00-2.621 8.549h0l1.462 9.808.004.028-.002.03-1.166 14.44a.892.892 0 00.232.669.883.883 0 00.649.284l1.443-33.809zm0 0a10.284 10.284 0 018.247-3.331h.001m-8.248 3.331l8.248-3.331m0 0c.102.006.203.013.305.021h.009m-.314-.021l.314.022m0 0a10.273 10.273 0 017.407 4.089h0a10.41 10.41 0 011.851 8.391h0a33.527 33.527 0 00.887 17.21h0l1.66 5.149h0a.868.868 0 01.033.398.87.87 0 01-.442.642.882.882 0 01-.384.111h-.001l-8.332.448-2.094-3.615-.466-.804v4.556l-10.076.542h-.002a.76.76 0 01-.046.001l10.005-37.118z" fill="#F4F7FA" stroke="#000" stroke-width=".5"/><path d="M141.965 39.967c-.573.329-2.837.547-2.998-.093l-.004-.014c-.112-.47-.019-.959.013-1.44.033-.482-.014-1.01-.343-1.364-.611-.66-1.699-.31-2.584-.477a2.18 2.18 0 01-1.697-2.328c.012-.1.032-.2.054-.3a1.676 1.676 0 00-.987-1.905 1.68 1.68 0 00-.758-.13c-.893.052-1.858.322-2.597-.34-.572-.51-.712-1.842-.461-2.567.423-1.217 3.127-1.855 4.308-2.205a10.243 10.243 0 018.673 1.422c.746.525 1.442 1.185 1.76 2.04.318.854.165 1.933-.552 2.497a4.613 4.613 0 011.07 4.48c-.355 1.14-2.044 2.234-2.897 2.724z" fill="#7247FF"/><path d="M56.58 40.284H16.968a1.927 1.927 0 01-1.925-1.925 1.923 1.923 0 011.925-1.924H56.58a1.927 1.927 0 011.924 1.924 1.924 1.924 0 01-1.924 1.925z" fill="#6C63FF"/><path d="M56.58 40.284H16.968a1.927 1.927 0 01-1.925-1.925 1.923 1.923 0 011.925-1.924H56.58a1.927 1.927 0 011.924 1.924 1.924 1.924 0 01-1.924 1.925z" fill="url(#paint0_linear)"/><path d="M81.036 41.925h-68.01a.252.252 0 110-.503h68.01a.252.252 0 110 .503z" fill="#3F3D56"/><path d="M56.58 56.402H16.968a1.927 1.927 0 01-1.927-1.924 1.924 1.924 0 011.927-1.925H56.58a1.927 1.927 0 011.924 1.925 1.924 1.924 0 01-1.924 1.924z" fill="#6C63FF"/><path d="M56.58 56.402H16.968a1.927 1.927 0 01-1.927-1.924 1.924 1.924 0 011.927-1.925H56.58a1.927 1.927 0 011.924 1.925 1.924 1.924 0 01-1.924 1.924z" fill="url(#paint1_linear)"/><path d="M81.036 58.044h-68.01a.252.252 0 110-.503h68.01a.252.252 0 110 .503z" fill="#3F3D56"/><path d="M56.58 72.521H16.968a1.927 1.927 0 01-1.927-1.924 1.923 1.923 0 011.927-1.925H56.58a1.927 1.927 0 011.924 1.925 1.924 1.924 0 01-1.924 1.924z" fill="#F2F2F2"/><path d="M81.036 74.162h-68.01a.252.252 0 110-.503h68.01a.252.252 0 110 .503z" fill="#3F3D56"/></g><defs><linearGradient id="paint0_linear" x1="14.809" y1="36.623" x2="59.827" y2="40.187" gradientUnits="userSpaceOnUse"><stop stop-color="#4614E8"/><stop offset="1" stop-color="#BCA7FF"/></linearGradient><linearGradient id="paint1_linear" x1="14.807" y1="52.742" x2="59.827" y2="56.306" gradientUnits="userSpaceOnUse"><stop stop-color="#4614E8"/><stop offset="1" stop-color="#BCA7FF"/></linearGradient><clipPath id="clip0"><path fill="#fff" d="M0 0h186v127H0z"/></clipPath></defs></svg>