<svg width="219" height="106" fill="none" xmlns="http://www.w3.org/2000/svg"><g clip-path="url(#clip0)"><path d="M29.796 84.747H194.5V1.36H29.796v83.388z" fill="#fff"/><path d="M195.859 86.106H28.437V0H195.86v86.106zM31.155 83.388h161.987V2.718H31.155v80.67z" fill="#E5E5E5"/><path d="M101.667 19a5 5 0 015 5v18.303a5 5 0 01-5 5H65.528l-7.6 9.12.868-9.12a3.698 3.698 0 01-3.698-3.698V24a5 5 0 015-5h41.569z" fill="url(#paint0_linear)"/><path d="M131.564 20.68v18.146h26.376l4.873 5.847-.556-5.847h2.371V20.679h-33.064z" fill="#F0F0F0"/><path d="M25.935 94.394l-1.07 8.679h-1.91v-8.68h2.98z" fill="#F4F7FA" stroke="#000" stroke-width=".5"/><path d="M22.35 105.381l-.001-2.584 4.436-.001h0s0 0 0 0a2.738 2.738 0 012.733 2.584l-7.169.001zm30.983-2.895l-1.854.457-2.074-8.428 2.893-.713 1.035 8.684z" fill="#F4F7FA" stroke="#000" stroke-width=".5"/><path d="M55.13 101.759l.002-.001h0a2.74 2.74 0 013.27 1.857l-6.96 1.713-.618-2.509 4.306-1.06h0zm-33.59-.844l.442-2.262.003-.012v-.012h0l.001-.002v-.004l.002-.02a16.238 16.238 0 01.049-.404 29.1 29.1 0 01.19-1.229c.186-1.06.502-2.577 1.022-4.398 1.038-3.642 2.889-8.495 6.136-13.341l.028-.042.01-.048 2.125-10.589.007-.034-.003-.035h0v-.004l-.001-.016a14.257 14.257 0 01-.002-1.27 17.22 17.22 0 01.443-3.182c.596-2.51 1.937-5.534 4.916-7.657l1.807-1.244 6.304.361 1.485 8.132 3.065 19.703.03.193.182.017a.24.24 0 01.044.02.747.747 0 01.225.207c.198.255.46.794.605 1.91l.007.055.03.046c.58.922.924 1.974 1 3.06l.002.036.012.033.235-.085-.235.085h0l.001.003.004.009.013.036a39.886 39.886 0 01.232.672c.153.454.361 1.092.583 1.829.441 1.47.932 3.325 1.14 4.894l-.046 2.952-2.926 1.558-6.806-19.25-.004-.01-.004-.01-4.938-10.915-.271-.601-.195.63.239.074-.24-.074h0v.005l-.006.016-.02.065-.081.254a95.642 95.642 0 01-1.53 4.313c-1.047 2.741-2.546 6.299-4.358 9.579l-.005.008-.004.008.227.105-.227-.105h0v.002l-.003.006-.011.023-.042.09-.16.347-.578 1.252-1.823 3.95c-1.37 2.972-2.866 6.219-3.365 7.316l-.007.015-.005.016-1.027 3.39-3.923-.42z" fill="#F4F7FA" stroke="#000" stroke-width=".5"/><path d="M43.264 38.096a4.708 4.708 0 100-9.415 4.708 4.708 0 000 9.415z" fill="#FFB7B7"/><path d="M47.721 33.389a4.458 4.458 0 11-8.915 0 4.458 4.458 0 018.915 0zM38.565 52.41l.033-.082-.026-.084a17.212 17.212 0 01.166-10.665l.243-.2c1.264-1.04 2.411-1.436 3.474-1.292 1.067.145 2.111.841 3.145 2.12a6.1 6.1 0 001.231 1.16l.001.001c.184.13.428.432.66.875.228.437.43.983.547 1.573.233 1.186.11 2.497-.788 3.455l-.051.055-.013.074-1.56 9.096-.004.025.001.026c.04 1.245-.161 1.979-.497 2.345-.308.337-.798.425-1.555.174-.755-.25-1.706-.822-2.828-1.685-1.086-.836-2.318-1.932-3.671-3.244l1.492-3.727zm18.793 1.242l-5.229-.333.606-1.848 3.731.29.167.014.075-.15a1.473 1.473 0 012.186-.518l.018.013a1.484 1.484 0 01-1.471 2.552l-.04-.017-.043-.003z" fill="#F4F7FA" stroke="#000" stroke-width=".5"/><path d="M45.127 44.847h0l1.707 4.721.05.138.145.024 8.602 1.424-.535 3.27-10.826-2.021-3.57-5.984a2.35 2.35 0 014.427-1.572z" fill="#F4F7FA" stroke="#000" stroke-width=".5"/><path d="M34.872 32.357a4.516 4.516 0 100-9.033 4.516 4.516 0 000 9.033z" fill="#7247FF"/><path d="M30.977 31.58a4.516 4.516 0 006.974-2.37 4.517 4.517 0 11-8.81-1.853 4.515 4.515 0 001.836 4.224z" fill="#7247FF"/><path d="M48.8 31.585c-.788-1.411-1.09-2-2.107-2.86-.899-.758-2.004-.981-2.896-.262a5.34 5.34 0 00-7.45 4.591 5.342 5.342 0 1010.672.312c0-.202-.012-.403-.036-.604.775-.109 1.042-1.068 1.817-1.177z" fill="#7247FF"/><path d="M187.886 65.39l.001-.002a1.885 1.885 0 012.299-1.747l.163.037.096-.136 2.708-3.816 2.351.933-3.872 5.298-.025.035-.013.041a1.893 1.893 0 01-3.298.639 1.9 1.9 0 01-.41-1.282z" fill="#F4F7FA" stroke="#000" stroke-width=".5"/><path d="M201.393 53.958l-8.258 10.713-2.102-2.733 4.929-8.29.061-.103-.042-.113-2.01-5.362 2.654-7.078c.374.221 1.415 1.008 1.599 2.985l.002.027.008.025 3.159 9.928zM163.458 31.19h.002a1.881 1.881 0 011.631 1.614c.038.273.014.55-.067.813l-.05.16.129.107 3.594 2.994-1.112 2.273-4.983-4.27-.032-.029-.041-.015a1.897 1.897 0 01-.381-3.338c.384-.26.85-.37 1.31-.31z" fill="#F4F7FA" stroke="#000" stroke-width=".5"/><path d="M173.81 45.54l-10.042-9.062 2.887-1.884 7.884 5.555.098.07.115-.034 5.501-1.59 6.852 3.194c-.25.355-1.115 1.333-3.1 1.363h-.027l-.026.007-10.142 2.382zm7.28 57.25h-2.318l-1.265-10.259h3.584l-.001 10.259z" fill="#F4F7FA" stroke="#000" stroke-width=".5"/><path d="M176.559 102.493h5.129v2.887h-8.256a3.141 3.141 0 013.127-2.887zm15.679.297h-2.318l-1.265-10.259h3.583v10.259z" fill="#F4F7FA" stroke="#000" stroke-width=".5"/><path d="M187.706 102.493h5.129v2.887h-8.255a3.15 3.15 0 01.908-1.968 3.152 3.152 0 012.218-.919zm5.52-38.458l-.224 15.657v.001l-.224 20.661-4.527-.412-2.485-28.686-.497-.006-3.161 28.672h-4.697l-.516-28.84 1.762-6.164 14.569-.883z" fill="#F4F7FA" stroke="#000" stroke-width=".5"/><path d="M178.065 64.547l-.042-.018-.046-.002-.476-.021 3.49-19.23.01-.052-.013-.052-1.45-5.898s0 0 0 0a1.039 1.039 0 01.645-1.222l2.609-.979.107-.04.04-.108.855-2.351 6.874.74.16 1.778.015.165.158.05c.39.125 2.193.724 3.838 1.593.824.436 1.593.93 2.125 1.458.537.533.787 1.05.697 1.544-.217 1.196-.974 3.698-1.7 5.968a254.297 254.297 0 01-1.475 4.462l-.011.034-.002.037-.451 10.82-.165.076c-.151.07-.371.168-.651.284-.559.234-1.355.543-2.319.85-1.928.616-4.515 1.225-7.203 1.225v0h-.004a13.592 13.592 0 01-5.615-1.111zm13.898-36.734a4.986 4.986 0 11-9.972.001 4.986 4.986 0 019.972-.001z" fill="#F4F7FA" stroke="#000" stroke-width=".5"/><path d="M191.218 32.883c-.998 1.063-2.851.492-2.981-.96a1.826 1.826 0 01.002-.34c.067-.643.439-1.227.35-1.906a.997.997 0 00-.183-.468c-.795-1.065-2.662.476-3.412-.488-.46-.59.08-1.521-.273-2.182-.466-.872-1.846-.442-2.712-.92-.963-.531-.906-2.009-.272-2.908.774-1.096 2.13-1.681 3.468-1.766 1.339-.084 2.669.278 3.919.765 1.42.554 2.829 1.319 3.703 2.568 1.062 1.518 1.165 3.56.633 5.336-.323 1.08-1.427 2.4-2.242 3.268z" fill="#7247FF"/><path d="M134.951 99.708l-.608 1.562-7.252-2.82.956-2.457 6.904 3.715z" fill="#F4F7FA" stroke="#000" stroke-width=".5"/><path d="M135.399 97.999h0a2.457 2.457 0 011.294-1.352 2.442 2.442 0 011.717-.095l-2.325 5.983-2.127-.828.108-.277h0l.809-2.082h0l.524-1.35zm-2.95 2.706c-2.053.226-4.307-.295-6.42-1.11h0a26.927 26.927 0 01-2.537-1.133h-.001a37.063 37.063 0 01-4.757-2.889 23.36 23.36 0 01-.423-.31l-.109-.082-.027-.021-.007-.005-.002-.002h0l14.283 5.552zm0 0l.812-2.154.234.089-.234-.089.262-.694-12.572-6.924-.02-.01-.017-.014h0l-.001-.001-.006-.005-.023-.018a7.104 7.104 0 00-.447-.315 8.112 8.112 0 00-1.235-.662c-1.009-.43-2.249-.678-3.334-.1h0c-.674.358-1.675.86-2.763 1.393h0a525.84 525.84 0 01-5.606 2.692c-.146.07-.522.296-.878.516-.165.101-.321.199-.44.274.016.021.032.045.049.07.125.177.308.43.539.724a16.2 16.2 0 001.86 2.025c.753.68 1.594 1.264 2.44 1.527.834.26 1.666.208 2.449-.373a69.53 69.53 0 001.302-.992h.001a66.38 66.38 0 002.869-2.362l.116-.102.029-.027.007-.006.002-.002h.001l14.604 5.54z" fill="#F4F7FA" stroke="#000" stroke-width=".5"/><path opacity=".14" d="M132.449 100.705c-2.053.226-4.307-.295-6.42-1.11h0a26.927 26.927 0 01-2.537-1.133h-.001a37.063 37.063 0 01-4.757-2.889 23.36 23.36 0 01-.423-.31l-.109-.082-.027-.021-.007-.005-.002-.002h0l14.283 5.552zm0 0l.812-2.154.234.089-.234-.089.262-.694-12.572-6.924-.02-.01-.017-.014h0l-.001-.001-.006-.005-.023-.018a7.104 7.104 0 00-.447-.315 8.112 8.112 0 00-1.235-.662c-1.009-.43-2.249-.678-3.334-.1h0c-.674.358-1.675.86-2.763 1.393h0a525.84 525.84 0 01-5.606 2.692c-.146.07-.522.296-.878.516-.165.101-.321.199-.44.274.016.021.032.045.049.07.125.177.308.43.539.724a16.2 16.2 0 001.86 2.025c.753.68 1.594 1.264 2.44 1.527.834.26 1.666.208 2.449-.373a69.53 69.53 0 001.302-.992h.001a66.38 66.38 0 002.869-2.362l.116-.102.029-.027.007-.006.002-.002h.001l14.604 5.54z" fill="#F4F7FA" stroke="#000" stroke-width=".5"/><path d="M99.5 78.907H89.345a.789.789 0 01-.788-.788v-4.378a5.867 5.867 0 1111.733 0v4.378a.79.79 0 01-.788.788z" fill="#7247FF"/><path d="M106.336 90.78l-.883-1.6 2.617-2.408.123-.113-.057-.157a1.395 1.395 0 011.046-1.845l.022-.004a1.402 1.402 0 01.818 2.66l-.039.017-.032.03-3.615 3.42z" fill="#F4F7FA" stroke="#000" stroke-width=".5"/><path d="M100.496 95.691h-.001a4.162 4.162 0 01-3.353-2.24h0l-4.425-8.517s0 0 0 0a2.194 2.194 0 013.783-2.21l4.075 9.141.132.298.254-.205 5.441-4.422 2.742 1.067-5.187 5.728s0 0 0 0a4.212 4.212 0 01-3.461 1.36zm33.977 6.873l-.725 1.511-7.014-3.369 1.141-2.376 6.598 4.234z" fill="#F4F7FA" stroke="#000" stroke-width=".5"/><path d="M135.052 100.894h0a2.451 2.451 0 011.394-1.249 2.44 2.44 0 011.719.038l-2.778 5.787-2.057-.989.129-.268h0l.966-2.014h0l.627-1.305zm-1.86-.285l-12.003-7.87-.019-.011-.016-.016h0-.001l-.005-.005-.022-.02a7.075 7.075 0 00-.422-.349 8.06 8.06 0 00-1.179-.755c-.974-.506-2.191-.848-3.317-.356h-.001c-.699.305-1.735.728-2.861 1.177h-.001c-2.186.87-4.718 1.842-5.795 2.253m25.642 5.952l-27.285-6.192m27.285 6.192l-.315.672-.975 2.085c-2.063.067-4.271-.625-6.315-1.6h0a26.892 26.892 0 01-2.443-1.324l-.001-.001a37.1 37.1 0 01-4.521-3.245 23.663 23.663 0 01-.397-.342l-.103-.09-.026-.024-.006-.005-.001-.002h-.001 0l15.104 3.876zm-25.642-5.952l-.09-.233m.09.233l-.09-.233m.09.233l-.391.15-.103.039-.027.01-.007.002h-.001l-.001.001h0l-.088-.234.088.234-.067.026-.071-.015-1.024-.208.049-.245m1.553.007a513.333 513.333 0 005.793-2.252l-5.793 2.252zm-1.553-.007l-.05.245-2.89-.585h-.001l-2.51-.51m5.451.85l-2.891-.585-2.597-.527m.037.262l.078-.04-.115-.222m.037.262l-.087-.017.05-.245m.037.262l-5.926 3.079m5.889-3.341l-6.116 3.177m0 0l.246.043h0v.001l-.001.005-.004.02a7.148 7.148 0 00-.013.083l-.001.011m-.227-.163l.115.222.112-.058m-.227-.164l23.63.11-.166.128h0-.001l-.001.002-.008.006-.031.024-.124.093a66.777 66.777 0 01-3.042 2.133l-.001.001c-.427.284-.885.581-1.375.89-3.616 2.274-8.72 5.017-13.038 5.594h0c-1.864.249-3.114-.188-3.96-.947-.856-.767-1.334-1.894-1.582-3.085-.249-1.189-.263-2.416-.214-3.35a16.164 16.164 0 01.14-1.436m-11.476 9.067l.002.013-.004-.013a1.398 1.398 0 01-1.638-.883 1.4 1.4 0 01.684-1.73l.038-.02.03-.031 3.434-3.603.965 1.553-2.49 2.539-.117.12.066.153a1.395 1.395 0 01-.97 1.902zm16.651-30.705a3.845 3.845 0 11-7.69 0 3.845 3.845 0 017.69 0z" fill="#F4F7FA" stroke="#000" stroke-width=".5"/><path d="M94.314 96.62l.061-.101-.04-.111-3.544-10.05 1.029-5.144 5.316-.944 4.118 5.012.017.02.021.018.03.023.016.013.019.01a3.141 3.141 0 011.49 1.795c.266.932.036 2.038-.758 3.31h0l-.017.026-.046.075.011.088.276 2.216-8.21 5.739a.585.585 0 01-.265-.277c-.064-.148-.08-.36-.008-.65.07-.289.222-.636.463-1.032h0l.02-.036z" fill="#F4F7FA" stroke="#000" stroke-width=".5"/><path d="M97.383 84.896l.247.04-.247-.04c-.07.436-.234.85-.479 1.218l-4.93 7.387v.001l-6.885 10.208-2.066-2.543 5.67-9.36.015-.025.009-.028 2.686-8.303a3.088 3.088 0 013.008-2.135 3.085 3.085 0 012.972 3.58z" fill="#F4F7FA" stroke="#000" stroke-width=".5"/><path d="M101.676 74.18h-6.21l-.064-.893-.318.892h-.957l-.126-1.767-.63 1.767H91.52v-.088a4.646 4.646 0 014.64-4.64h.876a4.647 4.647 0 014.64 4.64v.088z" fill="#7247FF"/><path d="M95.415 79.724a.816.816 0 01-.14-.012l-4.547-.803v-7.516h5.006l-.124.145c-1.724 2.01-.425 5.272.503 7.037a.777.777 0 01-.062.824.785.785 0 01-.636.325z" fill="#7247FF"/><path d="M163.357 66.258v10.59h-46.905l-6.774 8.127.774-8.128h-3.296V66.258h56.201z" fill="#F0F0F0"/><path d="M126.657 73.455a1.919 1.919 0 100-3.838 1.919 1.919 0 000 3.838zm-6.476 0a1.919 1.919 0 100-3.838 1.919 1.919 0 000 3.838zm-6.477 0a1.919 1.919 0 100-3.838 1.919 1.919 0 000 3.838z" fill="#fff"/><path d="M218.76 105.84H.24a.24.24 0 110-.48h218.52a.24.24 0 01.17.41.24.24 0 01-.17.07z" fill="#CACACA"/></g><defs><linearGradient id="paint0_linear" x1="54.819" y1="20.834" x2="108.566" y2="21.353" gradientUnits="userSpaceOnUse"><stop stop-color="#4614E8"/><stop offset="1" stop-color="#BCA7FF"/></linearGradient><clipPath id="clip0"><path fill="#fff" d="M0 0h219v106H0z"/></clipPath></defs></svg>