<svg width="218" height="119" fill="none" xmlns="http://www.w3.org/2000/svg"><g clip-path="url(#clip0)"><path d="M134.69 45.862l.017-.024.01-.028 5.235-14.188 4.715.838-5.105 16.937-11.034 12.776-.066.076.005.1a2.981 2.981 0 01-1.698 2.849 2.947 2.947 0 01-3.265-.506 2.98 2.98 0 01.285-4.607 2.953 2.953 0 011.637-.553l.129-.003.072-.108 9.063-13.559z" fill="#fff" stroke="#000" stroke-width=".5"/><path d="M162.774 14.34c0 5.171-4.763 4.39-10.637 4.39-5.875 0-10.637.781-10.637-4.39C141.5 9.168 143.826 0 152.137 0c8.597 0 10.637 9.168 10.637 14.34z" fill="#7247FF"/><path d="M182.113 59.462l.03.052.05.033a2.965 2.965 0 011.31 3.006 2.969 2.969 0 01-.766 1.531 2.952 2.952 0 01-3.182.736 2.953 2.953 0 01-1.356-1.04 2.986 2.986 0 01-.558-1.62 2.986 2.986 0 01.427-1.659l.088-.145-.102-.135-10.418-13.765-4.004-17.233 4.759-.53 4.311 14.498.009.028.014.026 9.388 16.217zm1.86 55.004l-10.617-29.102 7.08-.986 7.477 30.088h-3.94zM141.99 85.987l7.08.986-10.616 29.102h-3.941l7.477-30.088z" fill="#fff" stroke="#000" stroke-width=".5"/><path d="M160.508 22.782l.029-.002.027-.01h.002l.009-.003.034-.01.137-.043c.118-.035.29-.083.499-.134.421-.103.99-.22 1.593-.273.605-.053 1.228-.042 1.763.098.532.14.955.402 1.203.838.577 1.014 1.593 3.125 2.468 4.994.437.932.837 1.8 1.128 2.435.141.305.255.557.337.736l-5.501.828-.312.047.117.293 5.245 13.169.026.064.055.042h0l.004.003.014.011.058.047c.052.042.129.106.228.192.198.173.485.435.835.79a23.913 23.913 0 012.668 3.253c2.021 2.936 4.262 7.435 5.131 13.684a855.734 855.734 0 003.419 22.368l.037.217-.094.015-.981.154a354.222 354.222 0 01-15.275 2.02c-8.915.975-19.207 1.694-25.04.739l.003-.018c.028-.166.071-.405.13-.692.117-.575.297-1.343.548-2.118.252-.777.571-1.548.963-2.138.396-.596.833-.96 1.307-1.02l.506-.063-.36-.36c-.404-.407-.554-.774-.578-1.088-.025-.316.076-.611.236-.874a3.15 3.15 0 01.772-.813l.063-.045.016-.01.003-.002h.001l.081-.052.025-.093 5.273-19.021.005-.018.003-.018 1.165-9.365.005-.041-.008-.042-.245.052.245-.052h0l-.001-.002-.001-.005-.004-.021-.018-.081-.07-.31a57.576 57.576 0 00-1.257-4.623c-.42-1.317-.925-2.698-1.492-3.87-.563-1.16-1.207-2.155-1.921-2.654-1.217-.849-1.648-2.5-1.756-4.013a13.195 13.195 0 01.102-2.709l.006-.041.002-.01v-.003h0l.053-.31-.313.018-4.962.277.01-.116c.021-.255.054-.618.101-1.055a36.33 36.33 0 01.484-3.196c.235-1.164.549-2.31.959-3.16.205-.425.427-.762.664-.99.235-.224.472-.332.718-.332h3.217l.012-.001 15.445-1.463zm28.022 95.515v-4.149l-6.786-.001h0l6.786 4.15zm0 0l-11.019-.001c.027-1.09.47-2.13 1.239-2.903a4.227 4.227 0 012.994-1.246l6.786 4.15zm-48.958 0v-4.149l-6.786-.001h0l6.786 4.15zm0 0l-11.019-.001c.027-1.09.47-2.13 1.24-2.903a4.225 4.225 0 012.993-1.246l6.786 4.15zm19.94-107.287c0 3.832-3.093 6.938-6.907 6.938s-6.907-3.106-6.907-6.938c0-3.833 3.093-6.938 6.907-6.938s6.907 3.105 6.907 6.938z" fill="#fff" stroke="#000" stroke-width=".5"/><path d="M143.832 10.828h2.831l1.249-3.512.249 3.512h1.353l.729-2.049.146 2.049h10.053a7.624 7.624 0 00-2.219-5.38 7.56 7.56 0 00-5.357-2.229h-1.458a7.56 7.56 0 00-5.357 2.229 7.624 7.624 0 00-2.219 5.38z" fill="#7247FF"/><path d="M217.709 119H106.68a.292.292 0 010-.585h111.029a.29.29 0 01.291.292.292.292 0 01-.291.293zM125.382 9.977H0v52.872h125.382V9.977z" fill="#CBCBCB"/><path d="M2.623 60.215h120.136V12.61H2.623v47.605z" fill="#fff"/><path d="M104.246 29.738v20.3a1.007 1.007 0 01-1.005 1.01H81.489a1.013 1.013 0 01-1.005-1.01v-20.3a1.012 1.012 0 011.005-1.01h21.752a1.009 1.009 0 011.005 1.01z" fill="#6C63FF"/><path d="M104.246 29.738v20.3a1.007 1.007 0 01-1.005 1.01H81.489a1.013 1.013 0 01-1.005-1.01v-20.3a1.012 1.012 0 011.005-1.01h21.752a1.009 1.009 0 011.005 1.01z" fill="url(#paint0_linear)"/><path d="M93.902 51.149h-3.074a1 1 0 01-1.005-.983V29.108a1 1 0 011.005-.983h3.074a.991.991 0 011.004.983v21.058a1 1 0 01-1.004.983zm-2.17-28.774c1.58 1.372 1.08 4.55 1.08 4.55s-3.059.951-4.639-.422-1.08-4.55-1.08-4.55 3.06-.952 4.639.422z" fill="#3F3D56"/><path d="M96.979 26.24c-1.362 1.591-4.528 1.1-4.528 1.1s-.957-3.07.405-4.66c1.362-1.591 4.528-1.1 4.528-1.1s.957 3.07-.405 4.66z" fill="#3F3D56"/><path opacity=".2" d="M104.246 29.738v3.417l-23.761-.1v-3.317a1.012 1.012 0 011.004-1.01h21.752a1.01 1.01 0 011.005 1.01z" fill="#000"/><path d="M106.804 31.816a1.006 1.006 0 01-.803.397l-26.48-.111a1 1 0 01-.926-.627 1.014 1.014 0 01-.075-.387l.013-2.968a1.011 1.011 0 011.009-1.004l26.48.111a1.002 1.002 0 011 1.014l-.012 2.967c-.001.22-.073.433-.206.608z" fill="#6C63FF"/><path d="M106.804 31.816a1.006 1.006 0 01-.803.397l-26.48-.111a1 1 0 01-.926-.627 1.014 1.014 0 01-.075-.387l.013-2.968a1.011 1.011 0 011.009-1.004l26.48.111a1.002 1.002 0 011 1.014l-.012 2.967c-.001.22-.073.433-.206.608z" fill="url(#paint1_linear)"/><path d="M89.887 26.922l-.022 5.342 5.084.02.021-5.341-5.083-.02z" fill="#3F3D56"/><path d="M47.896 28.435H18.502v2.356h29.394v-2.356z" fill="#E5E5E5"/><path d="M63.893 37.03h-45.39v2.357h45.39v-2.356z" fill="url(#paint2_linear)"/><path d="M55.495 45.129H18.502v2.357h36.993v-2.357z" fill="#E5E5E5"/><path d="M36.786 101.994a7.025 7.025 0 006.814-1.205c2.387-2.012 3.135-5.325 3.744-8.393l1.8-9.077-3.77 2.607c-2.711 1.875-5.483 3.81-7.36 6.525-1.878 2.716-2.697 6.423-1.19 9.361" fill="#E6E6E6"/><path d="M37.368 113.616c-.474-3.472-.963-6.989-.629-10.498.296-3.116 1.243-6.16 3.17-8.656a14.36 14.36 0 013.68-3.348c.367-.233.706.352.34.584a13.676 13.676 0 00-5.393 6.534c-1.174 2.998-1.363 6.267-1.16 9.452.122 1.926.382 3.84.642 5.751a.352.352 0 01-.235.417.34.34 0 01-.415-.237v.001z" fill="#F2F2F2"/><path d="M40.784 108.045a5.205 5.205 0 001.957 1.768c.792.411 1.677.61 2.569.578 2.292-.109 4.201-1.715 5.92-3.239l5.086-4.51-3.365-.161c-2.421-.117-4.904-.226-7.21.524-2.305.751-4.431 2.554-4.853 4.951" fill="#E6E6E6"/><path d="M36.027 115.612c2.284-4.06 4.934-8.571 9.67-10.013 1.316-.4 2.696-.543 4.066-.422.432.037.324.706-.107.668a9.995 9.995 0 00-6.49 1.725c-1.83 1.251-3.255 2.99-4.461 4.834-.739 1.13-1.4 2.307-2.062 3.483-.212.376-.83.105-.616-.275z" fill="#F2F2F2"/><path d="M60.928 116.366H21.294a.29.29 0 01-.291-.293c0-.077.03-.152.085-.207a.294.294 0 01.206-.085h39.633c.077 0 .15.031.206.085a.295.295 0 010 .414.29.29 0 01-.206.086z" fill="#CBCBCB"/></g><defs><linearGradient id="paint0_linear" x1="80.356" y1="29.822" x2="105.122" y2="30.007" gradientUnits="userSpaceOnUse"><stop stop-color="#4614E8"/><stop offset="1" stop-color="#BCA7FF"/></linearGradient><linearGradient id="paint1_linear" x1="78.367" y1="27.366" x2="108.029" y2="28.529" gradientUnits="userSpaceOnUse"><stop stop-color="#4614E8"/><stop offset="1" stop-color="#BCA7FF"/></linearGradient><linearGradient id="paint2_linear" x1="18.257" y1="37.146" x2="64.722" y2="43.422" gradientUnits="userSpaceOnUse"><stop stop-color="#4614E8"/><stop offset="1" stop-color="#BCA7FF"/></linearGradient><clipPath id="clip0"><path fill="#fff" d="M0 0h218v119H0z"/></clipPath></defs></svg>