<svg width="40" height="40" fill="none" xmlns="http://www.w3.org/2000/svg"><path d="M14.817 16.764h-1.221v1.221h1.22v-1.221zm-5.537 0H7.979v1.221h1.303v-1.221zm1.792 0H9.85v1.221h1.22v-1.221zm-3.664 0H6.106v1.221h1.302v-1.221zm11.154 0H17.34v1.221h1.22v-1.221zm1.825-.016c-.106.01-.213.016-.32.016h-.854v1.221h.854c.147 0 .296-.007.442-.022l-.122-1.215zm1.453-.529a3.114 3.114 0 01-.941.434l.32 1.179c.469-.128.91-.331 1.31-.605l-.69-1.008zm-8.896.545h-1.22v1.221h1.22v-1.221zm-10.12-.476l-.646 1.035a4.3 4.3 0 001.332.55l.273-1.19a3.126 3.126 0 01-.959-.395zm13.866.476h-1.222v1.221h1.221v-1.221zm-12.188 0a3.31 3.31 0 01-.202-.006l-.076 1.219c.092.005.185.008.278.008h1.034v-1.221H4.502zm14.06 6.35h-1.303v1.222h1.303v-1.222zm-3.745 0h-1.221v1.222h1.22v-1.222zm1.873 0h-1.303v1.222h1.302v-1.222zm3.662-.013c-.094.009-.19.013-.285.013h-.936v1.221h.936c.131 0 .264-.006.395-.018l-.11-1.216zM9.2 23.114H7.978v1.222H9.2v-1.222zm-4.698 0c-.08 0-.157-.003-.235-.009l-.092 1.218c.108.008.217.012.323.012h.957v-1.221h-.953zm-1.695-.506l-.67 1.022c.408.267.853.461 1.323.578l.295-1.185a3.089 3.089 0 01-.948-.415zm8.265.506H9.85v1.222h1.22v-1.222zm1.872 0h-1.22v1.222h1.22v-1.222zm-5.617 0H6.106v1.222h1.221v-1.222zm14.479-.532a3.12 3.12 0 01-.943.43l.313 1.18a4.32 4.32 0 001.313-.597l-.683-1.013zm-1.42 6.622c-.105.01-.213.016-.32.016h-.853v1.22h.854c.147 0 .295-.007.44-.021l-.121-1.215zm1.453-.529a3.113 3.113 0 01-.941.435l.32 1.178c.468-.127.909-.33 1.31-.604l-.69-1.009zM9.28 29.22H7.979v1.221h1.303V29.22zm-1.872 0H6.106v1.221h1.302V29.22zm-2.907 0c-.067-.003-.135-.002-.202-.007l-.077 1.22c.092.005.185.008.276.008h1.038V29.22H4.5zm14.061 0H17.34v1.221h1.22V29.22zm-7.49 0H9.85v1.221h1.22V29.22zm5.618 0h-1.222v1.221h1.221V29.22zm-1.873 0h-1.221v1.221h1.22V29.22zm-1.873 0h-1.22v1.221h1.22V29.22zm-10.12-.477l-.648 1.035c.411.257.86.442 1.332.551l.274-1.19a3.124 3.124 0 01-.958-.396zm4.503 6.746H6.106v1.22h1.221v-1.22zm7.49 0h-1.221v1.22h1.22v-1.22zm3.745 0H17.34v1.22h1.22v-1.22zm3.265-.54a3.106 3.106 0 01-.942.432l.318 1.18c.468-.127.91-.33 1.31-.603l-.686-1.01zm-17.324.539c-.073 0-.145-.002-.216-.007l-.081 1.218c.097.007.197.01.296.01h.953v-1.22h-.952zm12.187.001h-1.222v1.22h1.221v-1.22zm-5.618 0H9.85v1.22h1.22v-1.22zm1.872 0h-1.22v1.22h1.22v-1.22zm7.429-.015c-.1.01-.204.015-.306.015h-.854v1.22h.854c.141 0 .284-.006.424-.02l-.118-1.215zM9.2 35.489H7.978v1.22H9.2v-1.22zM2.818 35l-.656 1.031c.41.26.857.45 1.329.56l.281-1.188a3.1 3.1 0 01-.954-.402zm25.964-23.137h-1.245v1.221h1.245v-1.221zm-1.867 0H25.67v1.221h1.245v-1.221zm10.995-.069a1.24 1.24 0 01-.411.07h-.623v1.22h.623c.277 0 .55-.045.81-.136l-.399-1.154zm-1.656.069h-1.246v1.221h1.246v-1.221zm-3.736 0h-1.245v1.221h1.245v-1.221zm-1.868 0h-1.245v1.221h1.245v-1.221zm3.736 0H33.14v1.221h1.245v-1.221zm-1.868 6.849h-1.245v1.22h1.245v-1.22zm5.392-.069a1.27 1.27 0 01-.411.068h-.623v1.222h.623c.277 0 .55-.046.81-.136l-.399-1.154zm-1.656.069h-1.246v1.22h1.246v-1.22zm-1.868 0H33.14v1.22h1.245v-1.22zm-7.471 0H25.67v1.22h1.245v-1.22zm1.867 0h-1.245v1.22h1.245v-1.22zm1.868 0h-1.245v1.22h1.245v-1.22zm3.736 6.848H33.14v1.22h1.245v-1.22zm-5.604 0h-1.245v1.22h1.245v-1.22zm-1.867 0H25.67v1.22h1.245v-1.22zm3.735 0h-1.245v1.22h1.245v-1.22zm1.868 0h-1.245v1.22h1.245v-1.22zm3.736 0h-1.246v1.22h1.246v-1.22zm1.656-.07a1.22 1.22 0 01-.411.07h-.623v1.22h.623c.277 0 .55-.045.81-.135l-.399-1.154zm-7.26 6.918h-1.245v1.221h1.245v-1.221zm5.604 0h-1.246v1.221h1.246v-1.221zm1.656-.068a1.27 1.27 0 01-.411.068h-.623v1.221h.623c.277 0 .55-.045.81-.136l-.399-1.154zm-9.128.068h-1.245v1.221h1.245v-1.221zm-1.867 0H25.67v1.221h1.245v-1.221zm7.471 0H33.14v1.221h1.245v-1.221zm-1.868 0h-1.245v1.221h1.245v-1.221zM18.199 8.704H6.369c-1.022 0-1.855.84-1.855 1.872 0 1.033.833 1.873 1.856 1.873h11.829c1.023 0 1.855-.84 1.855-1.873A1.866 1.866 0 0018.2 8.704zm0 2.524H6.369a.652.652 0 010-1.303H18.2a.652.652 0 010 1.303z" fill="#FCB500"/><path d="M39.977 5.002A2.481 2.481 0 0037.5 2.524h-6.86V.034h-3.724A1.858 1.858 0 0025.06 1.89v.001l.014 4.324-20.57-.035a4.26 4.26 0 00-3.081 1.326 4.455 4.455 0 00-1.266 3.107L0 35.51c0 2.374 2.104 4.457 4.502 4.457h15.565c2.389 0 4.407-2.017 4.407-4.406l-.004-1.93h.577v-1.222h-.58l-.014-5.627h.594V25.56h-.598l-.013-5.627h.611V18.71h-.614l-.014-5.627h.628v-1.221h-.631l-.003-1.288h-.001a4.456 4.456 0 00-1.265-3.069l-.078-.076 14.43.051c.459 0 .89-.126 1.259-.345l.002 3.776-.04-.01a1.263 1.263 0 01-.444.692l.485.617.005 5.55-.045-.01a1.262 1.262 0 01-.445.692l.49.623.005 5.546-.05-.013a1.263 1.263 0 01-.445.692l.496.63.004 5.54-.055-.013a1.263 1.263 0 01-.445.691l.501.637.002 2c0 .673-.563 1.2-1.28 1.2H24.993v1.222H37.5c1.402 0 2.501-1.064 2.501-2.423l-.023-29.773zM1.358 13.66l.01.01h-.01v-.01zm21.845 1.573l-.344-.174a3.08 3.08 0 01-.616.832l.847.88.116-.117.009 3.324h-.024c0 .331-.051.657-.153.97l.18.058v.62l-.38-.2c-.162.31-.373.589-.626.83l.84.885c.059-.055.115-.112.17-.17l.008 3.155h-.039c0 .325-.046.622-.138.918l.18.055v.607l-.375-.19a3.07 3.07 0 01-.616.83l.847.88c.05-.048.1-.098.148-.15l.008 3.318h-.054c0 .326-.048.631-.143.933l.2.062.001.605-.398-.204a3.12 3.12 0 01-.62.83l.845.883c.06-.059.12-.12.177-.18v.238c0 1.726-1.459 3.184-3.186 3.184H4.502c-1.748 0-3.28-1.512-3.28-3.232l.001-.288c.113.13.235.253.364.369l.817-.908a3.105 3.105 0 01-.645-.81l-.53.29.005-.645.314-.109a3.195 3.195 0 01-.17-1.017H1.24l.02-3.384c.106.117.218.228.336.333l.81-.913a3.068 3.068 0 01-.646-.806l-.492.273.004-.654.276-.096a3.207 3.207 0 01-.172-1.022H1.28l.02-3.21c.085.093.175.183.268.27l.828-.898a3.17 3.17 0 01-.639-.82l-.45.243.005-.659.236-.083a2.944 2.944 0 01-.17-1.03h-.06l.021-3.298c.083.086.17.17.26.25l.81-.915a3.067 3.067 0 01-.648-.805l-.414.23.004-.64.198-.07a3.21 3.21 0 01-.172-1.011l.045.048a4.261 4.261 0 003.08 1.326h15.564c1.16 0 2.254-.471 3.08-1.326.016-.015.03-.032.044-.047a3.11 3.11 0 01-.137.897l.148.046.002.609zm-.011-4.616c0 1.743-1.431 3.216-3.125 3.216H4.502c-1.694 0-3.125-1.473-3.125-3.216s1.431-3.215 3.125-3.215h10.714l5.176.018c1.547.173 2.8 1.567 2.8 3.197zM26.28 1.89c0-.35.285-.635.635-.635h2.502v1.27h-2.502a.635.635 0 01-.635-.635zm11.221 4.37l-11.207-.04-.008-2.585c.196.071.408.11.629.11h10.584A1.258 1.258 0 0137.5 6.26z" fill="#FCB500"/><path d="M4.478 9.348v-1.22c-1.303 0-2.479 1.11-2.479 2.477 0 1.367 1.176 2.479 2.479 2.479v-1.221c-.652 0-1.258-.564-1.258-1.258 0-.693.606-1.257 1.258-1.257zm15.549-1.221v1.221c.733 0 1.257.564 1.257 1.257 0 .694-.524 1.258-1.257 1.258v1.22a2.47 2.47 0 002.479-2.478 2.47 2.47 0 00-2.479-2.478z" fill="#FCB500"/></svg>