<svg width="40" height="40" fill="none" xmlns="http://www.w3.org/2000/svg"><path d="M.043 20.835C.484 31.474 9.253 40 20 40c10.746 0 19.515-8.526 19.958-19.165a.615.615 0 00.042-.21c0-.045-.016-.084-.025-.125.004-.168.025-.331.025-.5C40 8.973 31.027 0 20 0S0 8.973 0 20c0 .169.021.332.025.5-.009.041-.025.08-.025.125a.61.61 0 00.043.21zm31.108 7.592a27.4 27.4 0 00-5.268-1.588 63.24 63.24 0 00.35-5.588h6.225c-.114 2.568-.57 4.991-1.307 7.176zm2.555-7.177h4.98a18.607 18.607 0 01-3.328 9.474 21.456 21.456 0 00-3.072-1.8c.806-2.337 1.303-4.929 1.42-7.674zm-18.22 6.608A29.27 29.27 0 0120 27.5c1.53 0 3.041.128 4.512.358C23.645 34.526 21.75 38.75 20 38.75c-1.75 0-3.645-4.224-4.514-10.892zm1.899 10.472c-3.439-1.102-6.348-4.339-8.103-8.73a26.095 26.095 0 014.988-1.521c.574 4.37 1.623 8.177 3.115 10.251zm-2.043-24.944c1.522.235 3.082.364 4.658.364a30.53 30.53 0 004.657-.364C24.872 15.411 25 17.621 25 20H15a62.7 62.7 0 01.342-6.614zm9.64 7.864a61.278 61.278 0 01-.326 5.364A30.482 30.482 0 0020 26.25c-1.578 0-3.136.129-4.658.364a60.875 60.875 0 01-.325-5.364h9.964zm.75 6.829c1.754.352 3.428.865 4.987 1.521-1.755 4.391-4.664 7.627-8.103 8.73 1.492-2.074 2.54-5.881 3.115-10.251zM26.25 20c0-2.295-.128-4.62-.367-6.838 1.85-.365 3.62-.9 5.268-1.588C32.006 14.11 32.5 16.968 32.5 20h-6.25zm-.519-8.079c-.575-4.37-1.622-8.178-3.116-10.251 3.439 1.103 6.348 4.339 8.103 8.73a25.99 25.99 0 01-4.987 1.521zm-1.217.222A29.27 29.27 0 0120 12.5a29.27 29.27 0 01-4.514-.357C16.355 5.473 18.25 1.25 20 1.25c1.75 0 3.645 4.224 4.514 10.893zm-10.245-.222A26.123 26.123 0 019.28 10.4c1.755-4.391 4.664-7.628 8.103-8.73-1.492 2.074-2.54 5.881-3.115 10.251zm-.152 1.242A64.144 64.144 0 0013.75 20H7.5c0-3.032.494-5.89 1.349-8.428a27.496 27.496 0 005.268 1.59zm-.35 8.087c.037 1.885.153 3.771.35 5.589-1.85.365-3.62.9-5.268 1.588-.736-2.184-1.193-4.608-1.306-7.177h6.224zm-6.054 7.674a21.556 21.556 0 00-3.07 1.8 18.603 18.603 0 01-3.33-9.474h4.98c.118 2.745.614 5.337 1.42 7.674zM5.39 31.725a20.148 20.148 0 012.759-1.631c1.255 3.106 3.061 5.685 5.232 7.428a18.812 18.812 0 01-7.99-5.797zm21.227 5.796c2.172-1.742 3.977-4.322 5.232-7.428.987.48 1.902 1.032 2.759 1.63a18.791 18.791 0 01-7.992 5.798zM33.75 20c0-3.209-.535-6.234-1.462-8.924a21.571 21.571 0 003.07-1.8A18.637 18.637 0 0138.75 20h-5zm.86-11.725a20.288 20.288 0 01-2.759 1.631C30.596 6.8 28.79 4.22 26.62 2.477a18.827 18.827 0 017.991 5.798zM13.383 2.479C11.21 4.22 9.405 6.8 8.15 9.908a20.216 20.216 0 01-2.759-1.633 18.8 18.8 0 017.992-5.796zm-8.74 6.797c.947.667 1.97 1.273 3.07 1.8C6.785 13.766 6.25 16.791 6.25 20h-5A18.63 18.63 0 014.643 9.276z" fill="#FCB500"/></svg>