<svg width="53" height="40" fill="none" xmlns="http://www.w3.org/2000/svg"><g clip-path="url(#clip0_233_7785)" fill="#FCB500"><path d="M44.565 17.529a.626.626 0 00-.379 1.191c4.885 1.556 7.064 3.878 7.064 7.53 0 3.249-2.964 5.77-4.729 6.985a.625.625 0 00-.271.515v4.779a9.941 9.941 0 01-3.907-2.694.631.631 0 00-.586-.199c-.356.069-.72.166-1.088.265-.638.171-1.295.349-1.919.349-3.21 0-5.458-.69-7.755-2.379a.625.625 0 00-.741 1.008c2.534 1.862 4.995 2.621 8.496 2.621.789 0 1.529-.199 2.244-.391.222-.062.444-.122.662-.173 2.337 2.468 4.979 3.029 5.094 3.051a.62.62 0 00.52-.129.622.622 0 00.23-.483v-5.299c3.227-2.301 5-5.071 5-7.826 0-4.226-2.521-6.997-7.935-8.721z"/><path d="M41.25 16.875C41.25 7.255 32.477 0 20.846 0 9.156 0 0 7.414 0 16.878c0 5.673 4.014 9.738 7.5 12.198v8.295a.627.627 0 00.881.57c.183-.081 4.449-2.02 8.099-6.011 1.581.294 3.37.576 4.992.576 11.83 0 19.778-6.282 19.778-15.631zM21.471 31.256c-1.637 0-3.498-.314-5.104-.62a.634.634 0 00-.585.199c-2.562 2.89-5.573 4.726-7.032 5.517V28.75a.625.625 0 00-.271-.515C5.18 25.966 1.25 22.156 1.25 16.878 1.25 8.114 9.857 1.25 20.846 1.25 31.766 1.25 40 7.968 40 16.875c0 8.602-7.446 14.381-18.529 14.381z"/><path d="M20.625 14.375a2.502 2.502 0 00-2.5 2.5c0 1.379 1.121 2.5 2.5 2.5s2.5-1.121 2.5-2.5-1.121-2.5-2.5-2.5zm0 3.75a1.251 1.251 0 010-2.5 1.251 1.251 0 010 2.5zm8.75-3.75a2.502 2.502 0 00-2.5 2.5c0 1.379 1.121 2.5 2.5 2.5s2.5-1.121 2.5-2.5-1.121-2.5-2.5-2.5zm0 3.75a1.251 1.251 0 010-2.5 1.251 1.251 0 010 2.5zm-17.5-3.631a2.502 2.502 0 00-2.5 2.5c0 1.378 1.121 2.5 2.5 2.5s2.5-1.122 2.5-2.5c0-1.379-1.121-2.5-2.5-2.5zm0 3.75a1.251 1.251 0 010-2.5 1.251 1.251 0 010 2.5z"/></g><defs><clipPath id="clip0_233_7785"><path fill="#fff" d="M0 0h52.5v40H0z"/></clipPath></defs></svg>