<svg width="53" height="40" fill="none" xmlns="http://www.w3.org/2000/svg"><g clip-path="url(#clip0_233_7805)"><path d="M52.224 16.363a.667.667 0 00-.94.085l-2.959 3.55c-.064-.02-.129-.04-.2.002h-1.739l2.213-2.698a.668.668 0 00-1.025-.854L44.649 20h-1.974l2.213-2.698a.668.668 0 00-1.026-.854L40.938 20h-.94C39.974 8.949 31.015 0 20 0 8.973 0 0 8.973 0 20s8.973 20 20 20c10.591 0 19.263-8.282 19.935-18.75h1.004l2.925 3.552a.664.664 0 00.94.085.665.665 0 00.085-.94l-2.214-2.697h1.974l2.925 3.552a.665.665 0 00.94.085.665.665 0 00.085-.94l-2.213-2.697h1.739c.071.043.136.023.201.003l2.959 3.55a.664.664 0 00.94.084.665.665 0 00.085-.94l-2.769-3.322 2.769-3.323a.667.667 0 00-.086-.94zM20 38.75C9.661 38.75 1.25 30.339 1.25 20S9.661 1.25 20 1.25c10.325 0 18.724 8.387 18.748 18.75h-3.75C34.974 11.706 28.258 5 20 5 11.729 5 5 11.729 5 20s6.729 15 15 15c7.835 0 14.276-6.04 14.935-13.75h3.75c-.669 9.779-8.783 17.5-18.685 17.5zM29.997 20C29.976 14.464 25.5 10 20 10c-5.514 0-10 4.486-10 10s4.486 10 10 10c5.075 0 9.27-3.804 9.906-8.75h3.778c-.654 7.02-6.539 12.5-13.684 12.5-7.581 0-13.75-6.169-13.75-13.75S12.419 6.25 20 6.25c7.567 0 13.725 6.145 13.748 13.75h-3.75zm-5 0c-.024-2.78-2.253-5-4.997-5-2.758 0-5 2.242-5 5s2.242 5 5 5c2.308 0 4.235-1.579 4.809-3.75h3.835c-.629 4.255-4.26 7.5-8.644 7.5-4.824 0-8.75-3.926-8.75-8.75s3.926-8.75 8.75-8.75c4.81 0 8.725 3.902 8.747 8.75h-3.75zm-4.372 1.25h2.881c-.529 1.473-1.895 2.5-3.506 2.5A3.755 3.755 0 0116.25 20 3.755 3.755 0 0120 16.25c2.054 0 3.723 1.66 3.746 3.75h-3.121c-.369-.043-.668.256-.668.625s.3.668.668.625z" fill="#FCB500"/></g><defs><clipPath id="clip0_233_7805"><path fill="#fff" d="M0 0h52.5v40H0z"/></clipPath></defs></svg>