<svg width="40" height="40" fill="none" xmlns="http://www.w3.org/2000/svg"><g clip-path="url(#clip0_233_7795)" fill="#FCB500"><path d="M.81 7.057c-1.063 1.06-.835 2.553.01 3.394.034.033 3.432 3.265 8.21 8.024a.631.631 0 00.889 0 .624.624 0 000-.884c-.72-.717-1.406-1.396-2.056-2.039l1.994-1.986a.624.624 0 000-.884.63.63 0 00-.887 0l-2 1.992a690.19 690.19 0 00-2.905-2.84l4.537-4.518a.624.624 0 000-.884.63.63 0 00-.887 0l-4.551 4.533a306.134 306.134 0 00-1.465-1.406c-.265-.264-.612-1.007 0-1.617l6.276-6.25c.242-.245.887-.73 1.595-.03.031.035 3.2 3.62 8.037 8.438a.63.63 0 00.888 0 .623.623 0 000-.884C13.688 4.43 10.542.872 10.485.807c-1.17-1.162-2.58-.813-3.398 0L.81 7.057zm26.619 23.126a.63.63 0 00-.887 0l-1.997 1.987a436.387 436.387 0 00-1.92-1.926.63.63 0 00-.888 0 .624.624 0 000 .884 370.136 370.136 0 017.942 8.136c.43.43 1.02.666 1.66.666.66 0 1.326-.256 1.74-.669l6.272-6.321c.79-.786.835-2.12.098-2.856l-8.417-8.381a.63.63 0 00-.887 0 .623.623 0 000 .883l8.417 8.382c.25.25.203.79-.1 1.09l-6.274 6.322c-.144.145-.472.3-.848.3-.216 0-.525-.053-.758-.286-.013-.014-.539-.573-1.451-1.524l4.573-4.555a.624.624 0 000-.884.63.63 0 00-.887 0l-4.555 4.537a410.614 410.614 0 00-2.836-2.908l2.003-1.995a.622.622 0 000-.883zM.178 39.786a.628.628 0 00.629.161l12.551-3.723a.616.616 0 00.266-.16l21.45-21.505c.03-.03.045-.07.068-.103l4.588-4.57a1.937 1.937 0 000-2.754L33.16.59c-.738-.735-2.027-.735-2.765 0l-4.693 4.674c-.03.03-.047.068-.07.103L4.152 26.764a.618.618 0 00-.154.248L.031 39.156a.622.622 0 00.147.63zM26.181 6.59l1.304 1.298L8.003 27.344l-2.168-.49L26.18 6.589zM8.786 28.332l19.588-19.56 3.057 3.045L11.666 31.25h-2.88v-2.918zM33.742 14.12L13.354 34.562l-.724-2.502L32.32 12.7l1.423 1.419zM5.012 27.949l2.519.57v3.356c0 .345.28.625.627.625h3.293l.796 2.75-10.653 3.16 3.418-10.46zM31.283 1.474a.719.719 0 01.99 0l6.571 6.543a.694.694 0 01-.001.986l-4.231 4.216-7.56-7.529 4.231-4.216z"/></g><defs><clipPath id="clip0_233_7795"><path fill="#fff" d="M0 0h40v40H0z"/></clipPath></defs></svg>