<svg width="28" height="26" fill="none" xmlns="http://www.w3.org/2000/svg"><path fill-rule="evenodd" clip-rule="evenodd" d="M8.417 21.412a2.296 2.296 0 00-2.296 2.294 2.296 2.296 0 004.592 0 2.296 2.296 0 00-2.296-2.294zm15.304 0a2.296 2.296 0 00-2.296 2.294 2.296 2.296 0 004.591 0 2.296 2.296 0 00-2.295-2.294zm-15.304 1.53a.765.765 0 110 1.53.765.765 0 010-1.53zm15.304 0a.765.765 0 110 1.53.765.765 0 010-1.53zm-14.236-6.12l.193.921a.763.763 0 00.748.609H20.66a.765.765 0 010 1.53H10.426a2.294 2.294 0 01-2.246-1.827L4.86 2.138a.763.763 0 00-.748-.609H.765A.765.765 0 01.765 0h3.347C5.2 0 6.137.762 6.36 1.826l2.808 13.468H22.7c.375 0 .693-.27.756-.64.29-1.749.811-4.87 1.103-6.62a2.295 2.295 0 012.265-1.916.765.765 0 010 1.53.767.767 0 00-.756.638c-.29 1.75-.81 4.872-1.103 6.621a2.295 2.295 0 01-2.265 1.916H9.485z" fill="#fff"/></svg>