<svg width="27" height="26" fill="none" xmlns="http://www.w3.org/2000/svg"><path fill-rule="evenodd" clip-rule="evenodd" d="M13.5 4.072C14.652 1.662 17.084 0 19.895 0 23.817 0 27 3.236 27 7.222c0 4.215-2.109 8.08-4.668 11.187-3.76 4.566-8.461 7.486-8.461 7.486a.707.707 0 01-.742 0s-4.7-2.92-8.46-7.486C2.108 15.302 0 11.437 0 7.222 0 3.236 3.183 0 7.105 0c2.811 0 5.242 1.663 6.395 4.072zm12.079 3.15c0-3.19-2.547-5.778-5.684-5.778-3.138 0-5.684 2.589-5.684 5.778v.028a.718.718 0 01-.711.694.716.716 0 01-.71-.712v-.01c0-3.19-2.547-5.778-5.685-5.778-3.137 0-5.684 2.589-5.684 5.778 0 3.874 1.984 7.404 4.336 10.26 2.988 3.627 6.593 6.172 7.743 6.938 1.15-.766 4.755-3.31 7.743-6.938 2.352-2.856 4.336-6.386 4.336-10.26z" fill="#fff"/></svg>