<svg width="26" height="26" fill="none" xmlns="http://www.w3.org/2000/svg"><path d="M11.885 8.73a3.188 3.188 0 11-6.376 0 3.188 3.188 0 016.376 0zm8.607 0a3.188 3.188 0 11-6.377 0 3.188 3.188 0 016.377 0zm-8.607 8.54a3.188 3.188 0 11-6.376-.001 3.188 3.188 0 016.376 0zm8.607 0a3.188 3.188 0 11-6.377-.001 3.188 3.188 0 016.377 0z" fill="#F8F9FD"/><path fill-rule="evenodd" clip-rule="evenodd" d="M26 13c0-7.168-5.831-13-13-13C5.832 0 0 5.832 0 13c0 7.05 5.639 12.805 12.643 12.995L13 26c7.169 0 13-5.831 13-13zM1.159 13c0-6.413 5.127-11.65 11.498-11.833L13 1.162c6.53 0 11.841 5.31 11.841 11.838 0 6.527-5.312 11.837-11.841 11.837-6.53 0-11.841-5.31-11.841-11.837z" fill="#F8F9FD"/></svg>