<svg width="48" height="16" fill="none" xmlns="http://www.w3.org/2000/svg"><path fill-rule="evenodd" clip-rule="evenodd" d="M24.714 5.436c-.027 2.072 1.916 3.228 3.38 3.915 1.503.706 2.008 1.158 2.003 1.788-.012.966-1.2 1.392-2.312 1.409-1.888.028-3.006-.477-3.891-.876l-.074-.033-.699 3.152c.9.4 2.566.748 4.294.763 4.055 0 6.708-1.93 6.722-4.92.01-2.272-1.942-3.26-3.504-4.05-1.049-.53-1.922-.973-1.907-1.655.013-.514.523-1.063 1.639-1.203.552-.07 2.078-.124 3.807.643l.679-3.05a10.692 10.692 0 00-3.614-.638c-3.817 0-6.501 1.955-6.523 4.755zM41.372.943c-.74 0-1.364.417-1.643 1.056L33.937 15.33h4.052l.806-2.148h4.952l.468 2.148h3.572L44.67.943h-3.298zm1.737 9.29l-1.17-5.403-2.033 5.402h3.203zM19.8.942L16.607 15.33h3.861L23.661.943H19.8zm-9.732 9.793l4.02-9.793h4.054L11.887 15.33h-4.08L4.726 3.85c-.187-.707-.349-.967-.917-1.265C2.88 2.098 1.349 1.643 0 1.361L.092.943h6.57c.837 0 1.59.537 1.781 1.467l1.626 8.326z" fill="#EDF0F0"/></svg>