<svg width="40" height="30" fill="none" xmlns="http://www.w3.org/2000/svg"><path fill-rule="evenodd" clip-rule="evenodd" d="M37.781 27.663v-2.795h-.672v1.621a1.213 1.213 0 00-.448-.344 1.258 1.258 0 00-.561-.11c-.446 0-.874.171-1.19.475a1.592 1.592 0 00-.492 1.146c0 .43.177.842.493 1.146.315.304.743.475 1.189.475.193.007.386-.03.56-.11.176-.078.33-.196.449-.344v.376h.672v-1.536zm-20.85-1.55h1.15l.007.616h-1.144v1.413c0 .312.128.52.464.52.219-.008.431-.068.62-.176l.2.577a1.686 1.686 0 01-.873.24c-.828 0-1.117-.428-1.117-1.148V26.73h-.652v-.616h.638v-.94h.707v.94zm-9.299 1.154v1.945l-.706.013V27.5c0-.525-.229-.817-.706-.817a.785.785 0 00-.594.235.724.724 0 00-.193.59v1.717h-.707V27.5c0-.525-.235-.817-.699-.817a.78.78 0 00-.595.234.72.72 0 00-.192.59v1.705h-.706v-3.099h.7v.383c.101-.15.241-.27.407-.351.165-.081.349-.119.534-.11.212-.009.423.038.61.135s.343.24.453.416c.12-.18.288-.327.486-.424a1.3 1.3 0 01.644-.127 1.22 1.22 0 01.921.341 1.134 1.134 0 01.343.891zm16.415-1.232a.977.977 0 00-.489.115.931.931 0 00-.359.34v-.377h-.693v3.1h.7v-1.738c0-.513.229-.798.673-.798.15-.002.298.025.437.078l.215-.648a1.546 1.546 0 00-.498-.085l.014.013zm-10.331 0c.46-.015.915.098 1.311.324l-.31.545a2.131 2.131 0 00-1.008-.266c-.383 0-.612.156-.612.363 0 .208.242.266.545.305l.336.045c.7.098 1.123.338 1.123.928 0 .59-.538 1.011-1.466 1.011a2.382 2.382 0 01-1.392-.402l.336-.525c.309.22.685.335 1.07.324.477 0 .733-.136.733-.376 0-.175-.182-.272-.565-.324l-.337-.046c-.72-.097-1.11-.408-1.11-.914 0-.616.532-.992 1.346-.992zm20.046 0a.977.977 0 00-.488.115.933.933 0 00-.359.34v-.377h-.693v3.1h.7v-1.738c0-.513.228-.798.672-.798.15-.002.298.025.438.078l.215-.648a1.546 1.546 0 00-.498-.085l.013.013zm-8.898 2.259a1.515 1.515 0 01-.114-.638v-.013c-.009-.218.03-.435.114-.637.084-.203.21-.386.372-.538a1.676 1.676 0 011.229-.446c.42-.02.832.112 1.157.37l-.337.544a1.446 1.446 0 00-.84-.278c-.259.02-.5.133-.676.317a.976.976 0 00-.273.675c0 .25.097.49.273.674.176.184.417.298.676.318a1.44 1.44 0 00.84-.28l.337.546a1.73 1.73 0 01-1.157.37 1.68 1.68 0 01-.663-.098 1.632 1.632 0 01-.566-.348 1.564 1.564 0 01-.372-.538zm6.437-.638v-1.543h-.7v.376a1.213 1.213 0 00-.447-.344 1.259 1.259 0 00-.562-.11c-.446 0-.873.171-1.189.475a1.592 1.592 0 00-.492 1.146c0 .43.177.842.492 1.146.316.304.743.475 1.19.475a1.239 1.239 0 001.008-.454v.376h.7v-1.543zm-2.413-.504a.916.916 0 00.072 1.206.997.997 0 00.713.29.99.99 0 00.533-.156.945.945 0 00.356-.413.904.904 0 00.063-.533.925.925 0 00-.252-.48.981.981 0 00-.482-.267 1.008 1.008 0 00-.556.032.97.97 0 00-.447.32zm-8.631-1.117a1.712 1.712 0 00-1.182.491 1.59 1.59 0 00-.476 1.153c.006.43.19.84.509 1.14.32.3.75.464 1.196.458.484.024.96-.126 1.335-.421l-.336-.5c-.266.206-.595.32-.935.325a.914.914 0 01-.64-.192.85.85 0 01-.322-.567h2.388v-.26c0-.972-.626-1.62-1.527-1.62l-.01-.007zm.306.655a.823.823 0 00-.306-.052h-.014a.845.845 0 00-.586.208.786.786 0 00-.268.544h1.682a.746.746 0 00-.246-.538.803.803 0 00-.262-.162zm18.513 2.094a.349.349 0 00-.12-.022h.002a.348.348 0 00-.242.087.295.295 0 00-.07.337.325.325 0 00.123.137.328.328 0 00.307.026.323.323 0 00.175-.162.292.292 0 00-.07-.338.339.339 0 00-.105-.065zm-.124.526a.247.247 0 00.171-.072.235.235 0 000-.324.248.248 0 00-.272-.052.246.246 0 00-.081.052.235.235 0 000 .324.256.256 0 00.188.071h-.006zm.104-.36a.137.137 0 00-.088-.026l-.14.003v.285h.063v-.107h.03l.091.107h.077l-.097-.107a.12.12 0 00.07-.029.077.077 0 00.024-.058.08.08 0 00-.03-.068zm-.162.029v.078h.074a.073.073 0 00.04 0 .031.031 0 00.004-.015.031.031 0 00-.003-.015.031.031 0 00.003-.014.03.03 0 00-.003-.015.073.073 0 00-.04 0l-.075-.02zm-3.508-1.82a.917.917 0 00.072 1.205.968.968 0 00.712.29.99.99 0 00.533-.156.945.945 0 00.356-.412.905.905 0 00-.188-1.013 1.005 1.005 0 00-1.038-.236.97.97 0 00-.447.321zm-23.81.504v-1.55h-.699v.376a1.213 1.213 0 00-.447-.344 1.258 1.258 0 00-.562-.11c-.446 0-.873.171-1.188.475a1.592 1.592 0 00-.493 1.146c0 .43.177.842.493 1.146.315.304.742.475 1.188.475a1.247 1.247 0 001.009-.454v.376h.7v-1.536zm-2.412-.505a.916.916 0 00-.19.505h-.007a.898.898 0 00.265.704.997.997 0 00.717.288 1 1 0 00.533-.157.946.946 0 00.356-.412.905.905 0 00-.188-1.013.98.98 0 00-.483-.267 1.006 1.006 0 00-.556.032.97.97 0 00-.447.32z" fill="#EDF0F0"/><path d="M25.389 2.496H14.795v18.352H25.39V2.496z" fill="#D3D4D6"/><path d="M15.468 11.675a11.306 11.306 0 011.214-5.103 11.744 11.744 0 013.41-4.075A12.358 12.358 0 0013.902.07c-2.258-.234-4.54.15-6.583 1.107a11.966 11.966 0 00-4.97 4.306 11.362 11.362 0 00-1.845 6.191c0 2.19.64 4.336 1.845 6.192a11.967 11.967 0 004.97 4.305 12.502 12.502 0 006.583 1.107 12.357 12.357 0 006.19-2.428 11.743 11.743 0 01-3.409-4.073 11.305 11.305 0 01-1.215-5.101z" fill="#EDF0F0"/><path d="M39.681 11.674c0 2.19-.639 4.335-1.844 6.192a11.965 11.965 0 01-4.972 4.305 12.502 12.502 0 01-6.584 1.107 12.359 12.359 0 01-6.19-2.43 11.762 11.762 0 003.41-4.075 11.325 11.325 0 001.217-5.1c0-1.768-.417-3.512-1.218-5.102a11.761 11.761 0 00-3.408-4.075 12.358 12.358 0 016.19-2.43 12.51 12.51 0 016.583 1.107 11.966 11.966 0 014.972 4.306 11.361 11.361 0 011.844 6.192v.003z" fill="#E6E6E6"/><path fill-rule="evenodd" clip-rule="evenodd" d="M38.525 18.527v.377h-.071v-.377h-.172v-.077h.4v.077h-.157zm.776-.077v.454l-.07.003v-.344l-.132.295h-.09l-.132-.295v.34h-.087v-.453h.108l.141.324.141-.324h.121z" fill="#C6C6C6"/></svg>