<svg width="184" height="34" fill="none" xmlns="http://www.w3.org/2000/svg"><path d="M91.255 25.237h4.085V12.499h16.555V8.835h-20.64v16.402z" fill="#fff"/><path d="M109.396 15.204h-12.83v3.664h12.83v-3.664zm27.246 1.844c0 4.525 3.701 8.213 8.242 8.213h14.104v-3.664h-14.104c-2.283 0-4.157-2.25-4.157-4.525 0-2.275 1.85-4.526 4.157-4.526h14.104V8.883h-14.104c-4.541-.048-8.242 3.64-8.242 8.165z" fill="#fff"/><path d="M142.265 17.048c0 1.053.841 1.843 1.898 1.843h12.326v-3.663h-12.326c-1.057-.024-1.898.766-1.898 1.82zM45.411 8.835h-4.084v16.402h4.084v-6.37h12.446v-3.663H45.411V8.835zm17.78 0h-4.084v16.402h4.084V8.835zm112.568 8.285h-9.587v3.663h9.587c2.282 0 4.156 2.179 4.156 4.453H184c0-4.525-3.7-8.116-8.241-8.116z" fill="#fff"/><path d="M179.098 16.76h4.085c-.144-4.405-3.772-7.949-8.217-7.949h-14.104v16.402h4.084V12.475h10.02c2.21.024 4.012 2.13 4.132 4.286zm-43.753-7.925h-4.085v16.402h4.085V8.835zm-21.865 0v16.402h4.085v-11.66l12.47 10.654v-4.98l-12.47-10.416h-4.085zm-48.92 8.213c0 4.525 3.701 8.213 8.242 8.213h3.748v-3.664h-3.748c-2.282 0-4.157-2.25-4.157-4.525 0-2.275 1.85-4.526 4.157-4.526h3.748V8.883h-3.748c-4.54-.048-8.241 3.64-8.241 8.165zm17.012-8.213h-3.748V12.5h3.748c2.283 0 4.157 2.25 4.157 4.525 0 2.275-1.85 4.525-4.157 4.525h-3.748v3.664h3.748c4.541 0 8.242-3.688 8.242-8.213-.025-4.477-3.7-8.165-8.242-8.165zM17.083 4.334a12.705 12.705 0 00-12.326 9.553h3.028c1.321-3.879 4.998-6.656 9.298-6.656 2.355 0 4.493.814 6.2 2.203h3.988a12.688 12.688 0 00-10.188-5.1zM4.733 20.113a12.705 12.705 0 006.824 8.308v-3.328a9.944 9.944 0 01-3.796-4.98H4.733zm17.877 4.98v3.328a12.772 12.772 0 006.823-8.308h-3.027a9.844 9.844 0 01-3.796 4.98z" fill="#fff"/><path d="M17.083 2.897c4.998 0 9.395 2.61 11.918 6.513h3.34C29.528 3.855 23.738 0 17.082 0 10.403 0 4.637 3.831 1.826 9.41h3.34a14.162 14.162 0 0111.917-6.513zm16.771 17.216h-2.979c-1.418 6.297-7.064 10.99-13.816 10.99-5.021 0-9.418-2.61-11.941-6.537H1.802C4.613 30.146 10.404 34 17.083 34c8.338 0 15.306-5.986 16.771-13.887z" fill="#fff"/><path d="M4.18 22.818a14.546 14.546 0 01-1.2-4.453h10.307v10.75a12.43 12.43 0 003.796.575c1.322 0 2.595-.192 3.797-.575v-10.75h13.214c.025-.455.049-.886.049-1.341 0-.455-.024-.91-.049-1.341H20.88v-1.796h12.974a16.635 16.635 0 00-.745-2.705H17.972v15.587c-.288.024-.576.048-.889.048-.288 0-.6-.024-.889-.048V11.182h-2.907v4.477H2.979c.145-1.58.577-3.089 1.202-4.477H1.033A16.756 16.756 0 000 17c0 2.035.36 3.998 1.033 5.818h3.148z" fill="#fff"/></svg>