<svg width="24" height="18" fill="none" xmlns="http://www.w3.org/2000/svg"><path d="M21.082.065H2.918C1.328.065.033 1.337.033 2.901V15.1c0 1.563 1.294 2.835 2.885 2.835h18.164c1.59 0 2.885-1.272 2.885-2.835V2.9c0-1.563-1.294-2.835-2.885-2.835zM22.738 15.1c0 .897-.743 1.627-1.656 1.627H2.918c-.913 0-1.656-.73-1.656-1.627V2.9c0-.897.743-1.627 1.656-1.627h18.164c.913 0 1.656.73 1.656 1.628V15.1zm-1.75-.799c.246.23.256.612.022.854a.617.617 0 01-.869.022L14.126 9.56l-1.714 1.512c-.01.009-.02.014-.03.022a.622.622 0 01-.106.066c-.014.007-.028.015-.042.02a.651.651 0 01-.078.025c-.012.003-.024.008-.036.01a.629.629 0 01-.118.012H12a.622.622 0 01-.118-.012c-.012-.002-.023-.007-.035-.01a.635.635 0 01-.079-.024l-.042-.02a.574.574 0 01-.105-.066l-.03-.022L9.92 9.605 3.868 15.17A.619.619 0 013 15.141a.597.597 0 01.028-.853l5.973-5.492-5.998-5.268a.597.597 0 01-.048-.853.622.622 0 01.868-.048l6.441 5.66a.63.63 0 01.1.083l.01.012L12 9.812l8.146-7.184a.622.622 0 01.868.046.597.597 0 01-.047.853L15.044 8.75l5.944 5.55z" fill="#FCB500"/></svg>