<svg width="24" height="24" fill="none" xmlns="http://www.w3.org/2000/svg"><path d="M9.187 7.912l.45-.45c.525-.525.788-1.125.788-1.762 0-.638-.263-1.238-.788-1.763L8.175 2.475l-.488-.488c-.337-.337-.637-.675-.975-.975-.487-.487-1.087-.75-1.687-.75-.6 0-1.2.263-1.725.75l-1.8 1.8C.825 3.487.45 4.275.375 5.212c-.113 1.163.112 2.4.675 3.9.862 2.288 2.137 4.425 4.05 6.713 2.325 2.775 5.1 4.95 8.25 6.487 1.2.563 2.813 1.238 4.612 1.35h.338c1.2 0 2.175-.412 2.962-1.275l.038-.037c.262-.338.6-.638.938-.975l.675-.675c1.05-1.088 1.05-2.438 0-3.488l-2.925-2.925c-.488-.525-1.088-.787-1.726-.787-.637 0-1.237.262-1.724.787l-1.726 1.725c-.15-.075-.337-.187-.487-.262-.188-.113-.375-.188-.525-.3-1.575-1.012-3-2.325-4.388-4.012C8.7 10.575 8.25 9.825 7.95 9.075c.412-.3.825-.75 1.237-1.163zm-2.212.45c0 .038 0 .038 0 0-.413.413-.375.825-.263 1.125v.038c.375.9.9 1.762 1.688 2.775 1.462 1.8 3 3.187 4.688 4.275.225.15.412.225.637.337.188.113.375.188.525.3l.037.038c.15.075.3.113.488.113.375 0 .637-.263.713-.338l1.8-1.8c.262-.263.6-.413.862-.413.375 0 .675.225.863.413l2.924 2.925c.563.563.563 1.2 0 1.8-.187.225-.412.412-.637.637a27.17 27.17 0 00-1.012 1.05c-.488.6-1.163.863-2.026.863H18c-1.575-.113-3.075-.713-4.162-1.238a24.017 24.017 0 01-7.876-6.15c-1.8-2.175-3.037-4.2-3.825-6.375-.487-1.312-.675-2.4-.6-3.375.038-.637.3-1.2.75-1.65l1.8-1.8c.3-.262.6-.412.9-.412.3 0 .6.15.863.412.337.3.637.6.975.938.15.187.337.337.487.525l1.463 1.462c.3.3.45.6.45.9 0 .3-.15.6-.45.9l-.45.45c-.45.45-.863.863-1.35 1.275z" fill="#FCB500"/></svg>