<svg width="21" height="52" fill="none" xmlns="http://www.w3.org/2000/svg"><path d="M0 23.282a.783.783 0 00.478.721c6.365 2.69 12.82 2.69 19.184 0a.782.782 0 00.478-.72v-8.381C20.137 2.872 10.375.056 10.276.028a.783.783 0 00-.414 0C9.763.055 0 2.872 0 14.902v8.38zM10.07 1.603c1.356.451 8.504 3.304 8.503 13.299v7.856c-5.644 2.257-11.361 2.257-17.007 0v-7.856c0-9.997 7.152-12.85 8.504-13.299z" fill="#fff"/><path d="M12.474 6.773c1.969 1.969 2.967 4.704 2.967 8.129a.78.78 0 00.783.783c.433 0 .783-.35.783-.783 0-3.856-1.152-6.963-3.426-9.236a.783.783 0 10-1.107 1.107zm3.624 38.404a.781.781 0 00.782.783c.433 0 .783-.35.783-.783V29.776a.783.783 0 10-1.566 0v15.401zm-6.028 1.936a.783.783 0 00-.783.783v3.321a.78.78 0 00.783.783c.432 0 .783-.35.783-.783v-3.321a.783.783 0 00-.783-.783zm-.783-5.861a.78.78 0 00.783.782c.432 0 .783-.35.783-.782v-5.437a.783.783 0 10-1.566 0v5.437zM3.26 28.992a.783.783 0 00-.784.783v15.402a.78.78 0 00.783.783c.433 0 .783-.35.783-.783V29.775a.783.783 0 00-.783-.783z" fill="#fff"/></svg>