<svg width="26" height="26" fill="none" xmlns="http://www.w3.org/2000/svg"><path fill-rule="evenodd" clip-rule="evenodd" d="M17.456 17.454a9.218 9.218 0 01-6.56 2.718 9.214 9.214 0 01-6.559-2.718c-3.617-3.617-3.617-9.5 0-13.118a9.244 9.244 0 016.559-2.712c2.375 0 4.751.905 6.56 2.712 3.617 3.617 3.617 9.501 0 13.118zm8.128 6.98L19.151 18c3.685-4.278 3.51-10.755-.546-14.813-4.25-4.25-11.167-4.25-15.417 0-4.25 4.251-4.25 11.167 0 15.416a10.828 10.828 0 007.708 3.194c2.639 0 5.13-.94 7.106-2.648l6.433 6.434a.81.81 0 00.574.237.813.813 0 00.575-1.386z" fill="#fff"/></svg>