<svg width="28" height="28" fill="none" xmlns="http://www.w3.org/2000/svg"><path d="M28 14.009a13.983 13.983 0 00-6.273-11.685A14.006 14.006 0 003.064 5.255a13.986 13.986 0 001.25 18.838.8.8 0 00.16.153 13.97 13.97 0 0019.04.017.781.781 0 00.16-.15A13.95 13.95 0 0028 14.008zm-26.415 0A12.4 12.4 0 016.96 3.779a12.42 12.42 0 0119.11 7.315 12.4 12.4 0 01-2.839 11.2 10.928 10.928 0 00-5.912-4.646 5.808 5.808 0 002.482-4.751v-2.288a5.805 5.805 0 00-5.812-5.807 5.813 5.813 0 00-5.81 5.807v2.288a5.804 5.804 0 002.482 4.751 10.931 10.931 0 00-5.908 4.632 12.35 12.35 0 01-3.168-8.271zm12.362 3.108a4.228 4.228 0 01-4.191-4.224v-2.288a4.22 4.22 0 012.609-3.902 4.23 4.23 0 015.522 2.286c.212.513.322 1.062.322 1.616v2.288a4.222 4.222 0 01-4.191 4.224h-.07zm-8.028 6.3a9.31 9.31 0 018.026-4.715h.08a9.314 9.314 0 018.035 4.73 12.383 12.383 0 01-16.141-.015z" fill="#fff"/></svg>