<svg width="16" height="16" fill="none" xmlns="http://www.w3.org/2000/svg"><path d="M5 10.993c0-.787.607-1.457 1.433-1.581a10.557 10.557 0 013.134 0c.826.124 1.433.794 1.433 1.58v.175c0 .46-.396.833-.885.833h-4.23C5.396 12 5 11.627 5 11.167v-.174zm4.75-5.346c0 .91-.784 1.647-1.75 1.647s-1.75-.737-1.75-1.647S7.034 4 8 4s1.75.737 1.75 1.647z" stroke="#7B8DA5" stroke-width="1.5"/><path d="M15 4.111C15 2.393 13.259 1 11.111 1M1 11.111C1 13.26 2.393 15 4.111 15m0-14A3.111 3.111 0 001 4.111M11.111 15A3.889 3.889 0 0015 11.111" stroke="#7B8DA5" stroke-width="1.5" stroke-linecap="round"/></svg>