<svg width="13" height="16" fill="none" xmlns="http://www.w3.org/2000/svg"><path d="M2.12 5.38l.727.187-.727-.186zm3.03-3.367l-.244-.71.243.71zM2.087 5.51l-.727-.186.727.186zm-.142 3.165l.74-.12-.74.12zm.016.102l-.74.12.74-.12zm.349 3.468l.158-.734-.158.734zm.27.058l.158-.733-.159.733zm7.838 0l-.158-.733.159.733zm.27-.059l.159.733-.159-.732zm.352-3.487l.74.12-.74-.12zm.018-.108l-.74-.12.74.12zm-.128-3.117l-.728.18.728-.18zm-.046-.186l.728-.18-.728.18zM7.943 2.018l.247-.708-.247.708zm3.216 6.994l-.383.645.383-.645zm-9.302-.01l-.376-.648.376.649zM7.25 1a.75.75 0 00-1.5 0h1.5zm-1.5.781a.75.75 0 101.5 0h-1.5zm-1.443 10.81l.088-.744-.899-.107.062.903.749-.052zm4.386 0l.749.052.062-.903-.9.107.09.745zm-.066.447l.73.17-.73-.17zm-.06.26l-.731-.17.73.17zm-1.55 1.637l.184.727-.185-.727zm-1.033 0l-.185.727.185-.727zm-1.55-1.638l-.731.17.73-.17zm-.06-.26l.73-.169-.73.17zm-1.527-7.47c.347-1.36 1.325-2.425 2.546-2.845l-.487-1.418c-1.724.592-3.047 2.068-3.512 3.891l1.453.372zm-.033.128l.033-.128-1.453-.372-.033.129 1.453.371zm-.128 2.86a7.04 7.04 0 01.128-2.86l-1.453-.371a8.54 8.54 0 00-.156 3.47l1.481-.239zm.017.102l-.017-.102-1.48.24.016.101 1.48-.239zm-.953 1.879c0-.4.208-.726.482-.884l-.751-1.298A2.512 2.512 0 00.25 10.536h1.5zm.72.975c-.388-.083-.72-.467-.72-.975H.25c0 1.15.764 2.196 1.902 2.441l.317-1.466zm.269.059l-.27-.059-.317 1.466.27.059.317-1.466zm7.522 0c-2.482.536-5.04.536-7.522 0l-.317 1.466a19.3 19.3 0 008.156 0l-.317-1.466zm.27-.059l-.27.059.317 1.466.27-.059-.317-1.466zm.719-.975c0 .508-.332.892-.72.975l.318 1.466c1.138-.245 1.902-1.29 1.902-2.441h-1.5zm-.474-.88c.27.16.474.484.474.88h1.5c0-.915-.475-1.734-1.208-2.17l-.766 1.29zm-.458-1.127l-.017.109 1.48.239.018-.109-1.48-.239zm-.115-2.817c.227.919.266 1.88.115 2.817l1.48.24a8.564 8.564 0 00-.14-3.418l-1.455.36zm-.046-.185l.046.185 1.456-.36-.046-.186-1.456.36zM7.695 2.725c1.192.418 2.13 1.462 2.462 2.802l1.456-.36c-.445-1.8-1.722-3.261-3.423-3.857l-.495 1.415zm-2.302-.003a3.51 3.51 0 012.302.003L8.19 1.31a5.01 5.01 0 00-3.284-.006l.487 1.418zm6.149 5.645a.498.498 0 01.24.51l-1.481-.24c-.066.409.127.813.475 1.02l.766-1.29zm-10.32.53a.528.528 0 01.259-.543l.751 1.298a.972.972 0 00.47-.995l-1.48.24zM5.75 1v.781h1.5V1h-1.5zM4.218 13.336c1.517.181 3.047.181 4.564 0l-.177-1.49c-1.4.168-2.81.168-4.21 0l-.177 1.49zm5.14-.129c.042-.185.07-.374.084-.564l-1.497-.103c-.008.111-.024.22-.049.328l1.461.34zm-.06.26l.06-.26-1.462-.339-.06.26 1.461.338zM7.2 15.662c1.055-.267 1.85-1.13 2.096-2.196l-1.461-.338c-.13.559-.532.96-1.004 1.08l.369 1.454zm-1.402 0c.46.117.941.117 1.402 0l-.37-1.454a1.347 1.347 0 01-.663 0L5.8 15.663zm-2.096-2.196c.247 1.066 1.041 1.929 2.096 2.196l.37-1.454c-.473-.12-.875-.521-1.005-1.08l-1.461.338zm-.06-.259l.06.26 1.461-.34-.06-.259-1.461.34zm-.085-.564c.013.19.042.379.085.564l1.46-.339a2.083 2.083 0 01-.048-.328l-1.497.103z" fill="#7B8DA5"/></svg>