<svg width="16" height="16" fill="none" xmlns="http://www.w3.org/2000/svg"><path d="M1.367 9.209l.72-.208-.72.208zm0-5.17l-.72-.21.72.21zm13.266 0l.72-.21-.72.21zm0 5.17l-.72-.208.72.208zm-2.888 2.686l-.14-.737.14.737zm-7.49 0l.14-.737-.14.737zm0-10.542l-.14-.737.14.737zm7.49 0l.14-.737-.14.737zM1.405 9.339l-.721.208.72-.208zm13.19 0l.721.208-.72-.208zm0-5.43l-.72.208.72-.208zm-13.19 0l.72.208-.72-.208zm7.345 8.698a.75.75 0 00-1.5 0h1.5zM7.25 15a.75.75 0 001.5 0h-1.5zm-1.3-.75a.75.75 0 000 1.5v-1.5zm4.1 1.5a.75.75 0 000-1.5v1.5zm3.825-11.633l.038.13 1.44-.417-.037-.13-1.44.417zm.038 4.884l-.038.13 1.441.416.037-.13-1.44-.416zm-11.788.13L2.087 9l-1.44.416.037.13 1.44-.417zm-.038-4.884l.038-.13L.684 3.7l-.038.13 1.441.417zm0 4.754a8.54 8.54 0 010-4.754L.647 3.83a10.04 10.04 0 000 5.587l1.44-.416zm11.826-4.754a8.54 8.54 0 010 4.754l1.44.416a10.04 10.04 0 000-5.587l-1.44.417zm-2.308 6.91c-2.38.454-4.83.454-7.21 0l-.28 1.475c2.566.487 5.204.487 7.77 0l-.28-1.474zM4.395 2.09a19.308 19.308 0 017.21 0l.28-1.473a20.808 20.808 0 00-7.77 0l.28 1.473zm0 9.069c-1.101-.21-1.973-1-2.27-2.028l-1.441.417c.46 1.587 1.792 2.773 3.431 3.085l.28-1.474zm7.49 1.474c1.639-.312 2.972-1.498 3.431-3.085l-1.44-.417c-.298 1.027-1.17 1.819-2.271 2.028l.28 1.474zm-.28-10.543c1.101.21 1.973 1.001 2.27 2.028l1.441-.417c-.46-1.587-1.792-2.773-3.431-3.084l-.28 1.473zM4.115.616C2.476.927 1.143 2.113.684 3.7l1.44.417C2.423 3.09 3.295 2.3 4.396 2.09L4.115.616zm3.135 11.99V15h1.5v-2.393h-1.5zm-1.3 3.144h4.1v-1.5h-4.1v1.5z" fill="#7B8DA5"/><path d="M4 7.25l2.059-1.621c.376-.296.564-.444.771-.418.208.027.353.217.643.597l1.054 1.384c.29.38.435.57.643.597.207.026.395-.122.771-.418L12 5.75" stroke="#7B8DA5" stroke-width="1.5" stroke-linecap="round"/></svg>