<svg width="14" height="15" fill="none" xmlns="http://www.w3.org/2000/svg"><path d="M5.496 9.117c.383 0 .684-.3.684-.683a.695.695 0 00-.684-.684.695.695 0 00-.684.684c0 .382.301.683.684.683zm8.285-1.367A6.78 6.78 0 007 .969 6.78 6.78 0 00.219 7.75 6.78 6.78 0 007 14.531a6.78 6.78 0 006.781-6.781zm-3.636-1.121c.957 0 1.257 1.285.41 1.723.027.136.054.273.054.437 0 1.422-1.613 2.598-3.609 2.598S3.39 10.21 3.39 8.789c0-.164 0-.3.028-.437-.848-.438-.547-1.723.41-1.723.246 0 .492.11.656.273.602-.41 1.422-.683 2.325-.71l.546-2.38c0-.082.082-.136.165-.109l1.695.356a.65.65 0 01.601-.356c.383 0 .684.3.684.684 0 .355-.3.656-.684.656a.671.671 0 01-.683-.656L7.629 4.03l-.492 2.16c.93.028 1.75.301 2.351.711.192-.164.41-.273.657-.273zM8.258 9.8c-.492.52-2.078.492-2.543 0-.055-.055-.164-.055-.246 0-.055.082-.055.191 0 .246.629.629 2.406.629 3.035 0 .055-.055.055-.164 0-.246a.205.205 0 00-.246 0zm.219-2.051a.695.695 0 00-.684.684c0 .382.328.683.684.683.382 0 .683-.3.683-.683 0-.356-.3-.684-.683-.684z" fill="#FF4501"/></svg>