<svg width="13" height="14" fill="none" xmlns="http://www.w3.org/2000/svg"><path d="M8.64 5.86a3.824 3.824 0 00-.468-.4.388.388 0 00-.492.024l-.492.493c-.188.21-.282.468-.282.703 0 .14.07.234.164.304.07.047.164.118.258.188.656.68.656 1.734 0 2.39l-1.594 1.57c-.656.68-1.734.68-2.39 0-.656-.655-.633-1.734.023-2.39l.305-.305c.117-.093.14-.257.094-.398a4.485 4.485 0 01-.235-1.219.37.37 0 00-.633-.258l-.867.868a3.58 3.58 0 000 5.039 3.579 3.579 0 005.04 0l1.57-1.57v-.024c1.382-1.36 1.406-3.61 0-5.016zm3.305-3.305a3.579 3.579 0 00-5.039 0l-1.57 1.57v.023c-1.383 1.36-1.406 3.61 0 5.016.14.14.305.281.469.399a.388.388 0 00.492-.024l.492-.492c.188-.211.281-.469.281-.703 0-.14-.07-.235-.164-.305a6.504 6.504 0 01-.258-.187c-.656-.68-.656-1.735 0-2.391l1.594-1.57a1.656 1.656 0 012.39 0c.657.656.634 1.734-.023 2.39l-.304.305c-.117.094-.14.258-.094.398.14.399.21.82.234 1.22a.37.37 0 00.633.257l.867-.867a3.579 3.579 0 000-5.04z" fill="#BDCCE3"/></svg>