<svg width="140" height="59" fill="none" xmlns="http://www.w3.org/2000/svg"><rect width="20" height="20" rx="10" fill="#7ED957"/><rect x="52" width="20" height="20" rx="10" fill="#38B6FF"/><rect x="26" width="20" height="20" rx="10" fill="#A8A8A8"/><path d="M14.76 31.84c0 1.107-.14 2.113-.42 3.02a6.271 6.271 0 01-1.24 2.32c-.547.653-1.253 1.153-2.12 1.5-.853.347-1.86.52-3.02.52s-2.173-.173-3.04-.52c-.853-.36-1.56-.86-2.12-1.5-.547-.653-.96-1.433-1.24-2.34-.267-.907-.4-1.913-.4-3.02 0-1.48.24-2.767.72-3.86.493-1.093 1.24-1.94 2.24-2.54 1.013-.613 2.3-.92 3.86-.92 1.547 0 2.82.307 3.82.92 1 .6 1.74 1.453 2.22 2.56.493 1.093.74 2.38.74 3.86zm-10.42 0c0 1 .127 1.86.38 2.58s.647 1.273 1.18 1.66c.533.387 1.22.58 2.06.58.867 0 1.56-.193 2.08-.58.533-.387.92-.94 1.16-1.66.253-.72.38-1.58.38-2.58 0-1.507-.28-2.687-.84-3.54-.56-.853-1.48-1.28-2.76-1.28-.853 0-1.547.193-2.08.58-.533.387-.927.94-1.18 1.66-.253.72-.38 1.58-.38 2.58zm25.438-4.8c-.573 0-1.087.113-1.54.34-.44.227-.813.553-1.12.98-.307.413-.54.92-.7 1.52-.147.6-.22 1.273-.22 2.02 0 1.013.12 1.88.36 2.6.253.707.647 1.247 1.18 1.62.533.373 1.213.56 2.04.56a7.66 7.66 0 001.74-.2 17.2 17.2 0 001.9-.56v2.54a10.18 10.18 0 01-1.86.56c-.613.12-1.3.18-2.06.18-1.467 0-2.68-.3-3.64-.9-.947-.613-1.647-1.467-2.1-2.56-.453-1.107-.68-2.393-.68-3.86 0-1.08.147-2.067.44-2.96.293-.907.72-1.687 1.28-2.34a5.873 5.873 0 012.1-1.52c.84-.36 1.8-.54 2.88-.54a8.27 8.27 0 012.12.28c.72.173 1.407.413 2.06.72l-.98 2.46a15.314 15.314 0 00-1.62-.66 4.76 4.76 0 00-1.58-.28zM42.452 39V24.72h9.02v2.5h-6v2.98h1.2c1.347 0 2.447.187 3.3.56.867.373 1.507.887 1.92 1.54.414.653.62 1.4.62 2.24 0 .933-.206 1.733-.62 2.4-.413.667-1.053 1.18-1.92 1.54-.866.347-1.986.52-3.36.52h-4.16zm4.04-2.48c.92 0 1.64-.147 2.16-.44.534-.293.8-.807.8-1.54 0-.507-.133-.893-.4-1.16-.253-.267-.62-.447-1.1-.54-.466-.107-1.033-.16-1.7-.16h-.78v3.84h1.02zM61.206 39V24.72h9.02v2.5h-6v2.98h1.2c1.347 0 2.447.187 3.3.56.867.373 1.507.887 1.92 1.54.414.653.62 1.4.62 2.24 0 .933-.206 1.733-.62 2.4-.413.667-1.053 1.18-1.92 1.54-.866.347-1.986.52-3.36.52h-4.16zm4.04-2.48c.92 0 1.64-.147 2.16-.44.534-.293.8-.807.8-1.54 0-.507-.133-.893-.4-1.16-.253-.267-.62-.447-1.1-.54-.466-.107-1.033-.16-1.7-.16h-.78v3.84h1.02zM15.024 58H1.552V46.576h1.44V56.72h4.56V46.576h1.44V56.72h4.576V46.576h1.456V58zm12.706-3.248c-.342.757-.688 1.392-1.04 1.904-.342.501-.747.88-1.216 1.136-.47.245-1.067.368-1.792.368a5.32 5.32 0 01-.848-.064 4.245 4.245 0 01-.704-.176v-1.424c.213.096.442.176.688.24.245.053.501.08.768.08.394 0 .73-.053 1.008-.16a1.91 1.91 0 00.752-.56c.224-.256.432-.597.624-1.024l-4.4-8.496h1.584l3.184 6.288c.042.075.085.165.128.272.042.096.085.197.128.304.053.107.096.208.128.304h.064a3.37 3.37 0 00.096-.256c.042-.107.08-.208.112-.304a9.75 9.75 0 01.112-.272l2.752-6.336h1.52l-3.648 8.176zM45.49 58h-1.632l-3.024-4.96L37.762 58h-1.52l3.792-5.952-3.552-5.472h1.6l2.8 4.48 2.816-4.48h1.52l-3.536 5.44L45.49 58zm12.8 0h-6.385V46.576h6.384v1.264h-4.944v3.568h4.656v1.248h-4.656v4.08h4.944V58zm10.57-11.424c.95 0 1.744.09 2.384.272.65.181 1.136.48 1.456.896.33.416.496.97.496 1.664 0 .448-.086.848-.256 1.2-.16.341-.406.63-.736.864-.32.224-.715.379-1.184.464v.08c.48.075.912.213 1.296.416.394.203.704.49.928.864.224.373.336.859.336 1.456 0 .693-.16 1.285-.48 1.776-.32.48-.779.848-1.376 1.104-.587.245-1.29.368-2.112.368h-4.016V46.576h3.264zm.288 4.864c.981 0 1.653-.155 2.016-.464.362-.32.544-.79.544-1.408 0-.63-.224-1.077-.672-1.344-.438-.277-1.142-.416-2.112-.416h-1.888v3.632h2.112zm-2.112 1.2v4.144h2.304c1.013 0 1.717-.197 2.112-.592.394-.395.592-.912.592-1.552 0-.405-.09-.757-.272-1.056-.17-.299-.464-.528-.88-.688-.406-.17-.96-.256-1.664-.256h-2.192zm13.782-6.064h1.344v6.272c0 .267-.005.56-.016.88 0 .31-.005.619-.016.928-.01.31-.027.587-.048.832-.01.235-.021.416-.032.544h.064l6.288-9.456h1.6V58h-1.344v-6.208c0-.288.005-.597.016-.928.01-.341.021-.667.032-.976.021-.32.037-.603.048-.848.01-.245.021-.427.032-.544h-.064L82.418 58h-1.6V46.576zM105.947 58h-1.44v-4.688c-.618.213-1.2.39-1.744.528a7.687 7.687 0 01-1.792.192c-1.066 0-1.893-.245-2.48-.736-.586-.501-.88-1.221-.88-2.16v-4.56h1.44v4.352c0 .619.16 1.083.48 1.392.33.299.859.448 1.584.448a7.46 7.46 0 001.696-.176 21.688 21.688 0 001.696-.48v-5.536h1.44V58zm15.076 0l-1.376-3.536h-4.528L113.759 58h-1.456l4.464-11.472h1.296L122.511 58h-1.488zm-3.088-8.272a16.73 16.73 0 01-.16-.464 52.675 52.675 0 01-.224-.688 9.18 9.18 0 00-.16-.56c-.053.213-.112.432-.176.656-.053.213-.112.41-.176.592a12.69 12.69 0 01-.144.464l-1.296 3.456h3.616l-1.28-3.456z" fill="#fff"/></svg>