<svg width="140" height="48" fill="none" xmlns="http://www.w3.org/2000/svg"><rect width="20" height="20" rx="10" fill="#7ED957"/><rect x="52" width="20" height="20" rx="10" fill="#38B6FF"/><rect x="26" width="20" height="20" rx="10" fill="#A8A8A8"/><path d="M8.84 38.82c-.4.907-.827 1.693-1.28 2.36a4.385 4.385 0 01-1.7 1.5c-.693.347-1.6.52-2.72.52-.347 0-.727-.027-1.14-.08a8.654 8.654 0 01-1.14-.22v-2.6c.32.133.673.227 1.06.28.387.053.747.08 1.08.08.44 0 .793-.073 1.06-.22.28-.147.5-.347.66-.6.173-.267.313-.553.42-.86L.2 28.72h3.2l2.66 6.18c.067.133.147.307.24.52.093.213.187.433.28.66.093.227.167.427.22.6h.1c.053-.16.12-.353.2-.58l.28-.72.28-.66 2.48-6h3.12l-4.42 10.1zM32.702 43h-3.44l-5.18-7.24V43h-3.02V28.72h3.02v6.92l5.12-6.92h3.22l-5.2 6.86 5.48 7.42zm31.738-7.16c0 1.107-.14 2.113-.42 3.02a6.271 6.271 0 01-1.24 2.32c-.547.653-1.254 1.153-2.12 1.5-.854.347-1.86.52-3.02.52s-2.174-.173-3.04-.52c-.854-.36-1.56-.86-2.12-1.5-.547-.653-.96-1.433-1.24-2.34-.267-.907-.4-1.913-.4-3.02 0-1.48.24-2.767.72-3.86.493-1.093 1.24-1.94 2.24-2.54 1.013-.613 2.3-.92 3.86-.92 1.546 0 2.82.307 3.82.92 1 .6 1.74 1.453 2.22 2.56.493 1.093.74 2.38.74 3.86zm-10.42 0c0 1 .126 1.86.38 2.58.253.72.646 1.273 1.18 1.66.533.387 1.22.58 2.06.58.866 0 1.56-.193 2.08-.58.533-.387.92-.94 1.16-1.66.253-.72.38-1.58.38-2.58 0-1.507-.28-2.687-.84-3.54-.56-.853-1.48-1.28-2.76-1.28-.854 0-1.547.193-2.08.58-.534.387-.927.94-1.18 1.66-.254.72-.38 1.58-.38 2.58zm25.438-4.8c-.574 0-1.087.113-1.54.34-.44.227-.814.553-1.12.98-.307.413-.54.92-.7 1.52-.147.6-.22 1.273-.22 2.02 0 1.013.12 1.88.36 2.6.253.707.646 1.247 1.18 1.62.533.373 1.213.56 2.04.56a7.66 7.66 0 001.74-.2 17.2 17.2 0 001.9-.56v2.54a10.18 10.18 0 01-1.86.56c-.614.12-1.3.18-2.06.18-1.467 0-2.68-.3-3.64-.9-.947-.613-1.647-1.467-2.1-2.56-.454-1.107-.68-2.393-.68-3.86 0-1.08.146-2.067.44-2.96.293-.907.72-1.687 1.28-2.34a5.873 5.873 0 012.1-1.52c.84-.36 1.8-.54 2.88-.54a8.27 8.27 0 012.12.28c.72.173 1.406.413 2.06.72l-.98 2.46a15.314 15.314 0 00-1.62-.66 4.76 4.76 0 00-1.58-.28zM92.132 43V28.72h9.02v2.5h-6v2.98h1.2c1.347 0 2.447.187 3.3.56.867.373 1.507.887 1.92 1.54.413.653.62 1.4.62 2.24 0 .933-.207 1.733-.62 2.4-.413.667-1.053 1.18-1.92 1.54-.867.347-1.987.52-3.36.52h-4.16zm4.04-2.48c.92 0 1.64-.147 2.16-.44.533-.293.8-.807.8-1.54 0-.507-.133-.893-.4-1.16-.253-.267-.62-.447-1.1-.54-.467-.107-1.033-.16-1.7-.16h-.78v3.84h1.02zM110.886 43V28.72h9.02v2.5h-6v2.98h1.2c1.347 0 2.447.187 3.3.56.867.373 1.507.887 1.92 1.54.413.653.62 1.4.62 2.24 0 .933-.207 1.733-.62 2.4-.413.667-1.053 1.18-1.92 1.54-.867.347-1.987.52-3.36.52h-4.16zm4.04-2.48c.92 0 1.64-.147 2.16-.44.533-.293.8-.807.8-1.54 0-.507-.133-.893-.4-1.16-.253-.267-.62-.447-1.1-.54-.467-.107-1.033-.16-1.7-.16h-.78v3.84h1.02z" fill="#fff"/></svg>