<svg viewBox="0 0 36 36" xmlns="http://www.w3.org/2000/svg" xmlns:xlink="http://www.w3.org/1999/xlink"><style>:root&gt;svg{display:none}:root&gt;svg:target{display:block}</style><svg fill="none" viewBox="0 0 32 16" id="css--arrowSlider" xmlns="http://www.w3.org/2000/svg"><path d="M8.252.077l.707.708-6.455 6.454H31.09v1H2.514l6.445 6.445-.707.707L1.1 8.24h-.01v-.01l-.495-.495L8.252.077z" fill="#fff"/></svg><svg fill="none" viewBox="0 0 36 36" id="css--cert" xmlns="http://www.w3.org/2000/svg"><path d="M27.222 9.36l-4.54-4.54C22.19 4.328 21.48 4 20.824 4H9.667c-1.477.055-2.625 1.203-2.625 2.68v6.398c-.328 0-.656-.055-1.367-.273H5.4c-.273 0-.547.11-.71.273-.985 1.04-.93.985-2.298 1.367-.382.11-.656.383-.765.766C1.3 16.578 1.3 16.523.315 17.508a1.14 1.14 0 00-.273 1.094c.383 1.312.383 1.312 0 2.625-.11.382 0 .82.273 1.093.985.985.985.985 1.313 2.297.11.383.383.656.765.766.11.055.165.055.274.055v5.687c0 .328.11.602.383.766a.99.99 0 00.875.054l3.117-1.586 3.062 1.586c.165.055.274.055.438.055h14.875c1.422 0 2.625-1.148 2.625-2.57V11.219c0-.656-.328-1.367-.82-1.86zm-6.18-3.555c.11.054.273.11.383.218l4.593 4.594c.11.11.165.274.22.438h-5.196v-5.25zM1.847 21.335c.273-1.202.273-1.64 0-2.843.82-.875 1.039-1.258 1.367-2.46 1.203-.329 1.531-.548 2.406-1.423a4.513 4.513 0 002.789 0c.82.875 1.203 1.094 2.406 1.422.329 1.203.492 1.532 1.367 2.461-.328 1.203-.328 1.64 0 2.844-.82.875-1.039 1.258-1.367 2.46-.82.22-1.312.384-2.078 1.04a4.457 4.457 0 00-1.695-.328c-.656 0-1.203.11-1.75.383-.766-.657-1.258-.875-2.078-1.094-.328-1.203-.492-1.531-1.367-2.461zm5.578 7.274a1.066 1.066 0 00-.82 0l-2.188 1.149v-3.336.055a.98.98 0 00.71.273c.22 0 .384-.055.602-.11.383-.273.82-.382 1.313-.382.437 0 .875.11 1.258.328.218.164.383.164.601.164.274 0 .492-.055.711-.273l.055-.055v3.336l-2.242-1.149zm18.867.82c0 .438-.438.876-.875.876h-14v-4.867c.055 0 .11 0 .219-.055.383-.11.656-.383.765-.766.328-1.367.328-1.312 1.313-2.297a1.14 1.14 0 00.273-1.093c-.383-1.313-.383-1.313 0-2.625.11-.383 0-.82-.273-1.094-.985-.985-.985-.985-1.313-2.297a1.083 1.083 0 00-.765-.766c-1.313-.383-1.313-.328-2.297-1.367-.164-.164-.383-.219-.547-.273V6.68c0-.492.383-.93.875-.93h9.625v5.742c0 .711.547 1.258 1.312 1.258h5.688v16.68z" fill="#5C8EE6"/></svg><svg fill="none" viewBox="0 0 16 12" id="css--mail" xmlns="http://www.w3.org/2000/svg"><path d="M.313 3.969c.718.562 1.625 1.25 4.812 3.562C5.75 8 6.906 9.031 8 9.031c1.125 0 2.25-1.031 2.906-1.5 3.188-2.312 4.094-3 4.813-3.562.125-.094.281 0 .281.156V10.5c0 .844-.656 1.5-1.5 1.5h-13A1.5 1.5 0 010 10.5V4.125c0-.156.188-.25.313-.156zM8 8c-.719.031-1.75-.906-2.281-1.281-4.157-3-4.469-3.282-5.407-4.032A.711.711 0 010 2.095V1.5C0 .687.688 0 1.5 0h13A1.5 1.5 0 0116 1.5v.594c0 .25-.094.469-.281.594-.938.75-1.25 1.03-5.406 4.03C9.78 7.095 8.75 8.032 8 8z" fill="#5C8EE6"/></svg><svg fill="none" viewBox="0 0 36 36" id="css--man" xmlns="http://www.w3.org/2000/svg"><path d="M17.117 23.25c-1.586 0-2.297.875-4.867.875-2.625 0-3.336-.875-4.922-.875C3.281 23.25 0 26.586 0 30.633 0 31.398.602 32 1.367 32h21.711c.766 0 1.422-.602 1.422-1.367 0-4.047-3.336-7.383-7.383-7.383zm-15.367 7c.164-2.898 2.625-5.195 5.578-5.25 1.094 0 2.133.875 4.922.875 2.79 0 3.773-.875 4.867-.875 2.953.055 5.414 2.352 5.578 5.25H1.75zm3.063-17.5h.656a6.399 6.399 0 00-.219 1.75c0 3.883 3.117 7 7 7 3.828 0 7-3.117 7-7-.055-.602-.11-1.148-.273-1.75h.71a.431.431 0 00.438-.438v-.874a.47.47 0 00-.438-.438h-.437c0-2.79-1.914-5.14-4.54-5.852-.218-.656-.874-1.093-1.585-1.148h-1.75c-.766.055-1.422.492-1.64 1.148C7.164 5.86 5.25 8.211 5.25 11h-.438a.431.431 0 00-.437.438v.874c0 .274.164.438.438.438zm10.062-5.742A4.555 4.555 0 0117.5 11h-2.625V7.008zm-3.5-1.258h1.75V11h-1.75V5.75zM7 11c0-1.75 1.04-3.281 2.625-3.992V11H7zm.328 1.75h9.844c.164.547.273 1.148.328 1.75 0 2.898-2.406 5.25-5.25 5.25A5.251 5.251 0 017 14.5c0-.602.11-1.203.328-1.75z" fill="#5C8EE6"/></svg><svg fill="none" viewBox="0 0 12 17" id="css--mark" xmlns="http://www.w3.org/2000/svg"><path d="M6.625 15.688a.73.73 0 01-1.219 0C.844 9.125 0 8.438 0 6c0-3.313 2.688-6 6-6 3.344 0 6 2.688 6 6 0 2.438-.813 3.125-5.375 9.688zM6 8.5c1.406 0 2.5-1.094 2.5-2.5 0-1.375-1.094-2.5-2.5-2.5A2.507 2.507 0 003.5 6c0 1.406 1.125 2.5 2.5 2.5z" fill="#5C8EE6"/></svg><svg fill="none" viewBox="0 0 24 24" id="css--phone" xmlns="http://www.w3.org/2000/svg"><path d="M19.969 16.082l-.75 3.156a.94.94 0 01-.938.782C10.406 19.988 4 13.582 4 5.707c0-.469.281-.844.75-.937l3.156-.75c.438-.094.907.156 1.094.562l1.469 3.406c.156.407.062.875-.281 1.125L8.5 10.488a10.851 10.851 0 005 4.97l1.375-1.688c.25-.313.719-.438 1.125-.282l3.406 1.47c.407.218.657.687.563 1.124z" fill="#5C8EE6"/></svg><svg fill="none" viewBox="0 0 36 36" id="css--speed" xmlns="http://www.w3.org/2000/svg"><path d="M11.625 13.875c-.984 0-1.75.82-1.75 1.75 0 .984.766 1.75 1.75 1.75.93 0 1.75-.766 1.75-1.75 0-.93-.82-1.75-1.75-1.75zM17.75 6C9.055 6 2 13.055 2 21.75c0 2.898.766 5.633 2.133 7.93.273.547.875.875 1.476.875h24.227c.602 0 1.203-.328 1.531-.875 1.313-2.297 2.133-5.032 2.133-7.93C33.5 13.055 26.445 6 17.75 6zm0 21.875c-1.258 0-2.188-.93-2.188-2.188 0-1.203.93-2.187 2.188-2.187 1.203 0 2.188.984 2.188 2.188 0 1.257-.985 2.187-2.188 2.187zm11.594 0h-7.328c.328-.656.547-1.367.547-2.188 0-.328-.055-.656-.165-.984l5.032-2.133c.656-.328.984-1.093.71-1.75-.328-.656-1.093-.984-1.75-.71l-5.195 2.242c-.875-.875-2.133-1.477-3.445-1.477-2.68 0-4.813 2.188-4.813 4.813 0 .82.165 1.53.547 2.187H6.102c-.985-1.86-1.477-3.938-1.477-6.125 0-7.219 5.852-13.125 13.125-13.125 7.219 0 13.125 5.906 13.125 13.125 0 2.188-.547 4.266-1.531 6.125zM9 20c-.984 0-1.75.82-1.75 1.75 0 .984.766 1.75 1.75 1.75.93 0 1.75-.766 1.75-1.75 0-.93-.82-1.75-1.75-1.75zm8.75-8.75c-.984 0-1.75.82-1.75 1.75 0 .984.766 1.75 1.75 1.75.93 0 1.75-.766 1.75-1.75 0-.93-.82-1.75-1.75-1.75zm6.125 2.625c-.984 0-1.75.82-1.75 1.75 0 .984.766 1.75 1.75 1.75.93 0 1.75-.766 1.75-1.75 0-.93-.82-1.75-1.75-1.75z" fill="#5C8EE6"/></svg><svg fill="none" viewBox="0 0 21 28" id="css--time" xmlns="http://www.w3.org/2000/svg"><path d="M20.125 1.75h.219A.665.665 0 0021 1.094V.656C21 .328 20.672 0 20.344 0H.656A.665.665 0 000 .656v.438c0 .383.273.656.656.656h.219C.875 6.781 3.281 12.36 7.93 14 3.227 15.695.875 21.273.875 26.25H.656a.665.665 0 00-.656.656v.438c0 .383.273.656.656.656h19.688a.665.665 0 00.656-.656v-.438c0-.328-.328-.656-.656-.656h-.219c0-4.977-2.46-10.555-7.11-12.25 4.704-1.64 7.11-7.219 7.11-12.25zm-17.5 0h15.75c0 6.07-3.555 10.938-7.875 10.938-4.375 0-7.875-4.868-7.875-10.938zm15.75 24.5H2.625c0-6.016 3.5-10.938 7.875-10.938 4.32 0 7.875 4.922 7.875 10.938zM14.711 8.04c.328-.384 0-1.04-.547-1.04H6.781c-.547 0-.875.656-.547 1.04.11.163.22.327.383.491.11.164.274.219.492.219h6.727c.219 0 .383-.055.492-.219a3 3 0 00.383-.492zM5.359 22.75c-.328 0-.546.219-.656.492 0 .164-.055.328-.11.492a.66.66 0 00.657.766h10.445a.66.66 0 00.657-.766c-.055-.164-.11-.328-.11-.492-.11-.273-.328-.492-.656-.492H5.359z" fill="#5C8EE6"/></svg><svg fill="none" viewBox="0 0 36 36" id="css--truck" xmlns="http://www.w3.org/2000/svg"><path d="M1.75 21.5h18.375c.93 0 1.75-.766 1.75-1.75V7.5c0-.93-.82-1.75-1.75-1.75H1.75C.766 5.75 0 6.57 0 7.5v12.25c0 .984.766 1.75 1.75 1.75zm0-14h18.375v12.25H1.75V7.5zm32.21 7.766l-3.226-3.227c-.656-.656-1.53-.984-2.46-.984H24.5a.864.864 0 00-.875.875v11.375H12.469a3.71 3.71 0 00-2.406-.875c-1.258 0-2.352.547-3.063 1.476-.766-.93-1.86-1.531-3.063-1.531C1.75 22.375 0 24.18 0 26.313a3.921 3.921 0 003.938 3.937c1.203 0 2.296-.547 3.062-1.477.71.93 1.805 1.477 3.063 1.477 2.132 0 3.937-1.75 3.937-3.938 0-.437-.11-.875-.273-1.312h10.828c-.164.766-.11 1.531.164 2.352.437 1.367 1.64 2.46 3.062 2.789 2.844.71 5.469-1.477 5.469-4.266 0-.273-.055-.547-.11-.875h.985c.438 0 .875-.383.875-.875v-6.398a3.48 3.48 0 00-1.04-2.461zM3.938 28.5c-1.257 0-2.187-.93-2.187-2.188 0-1.203.93-2.187 2.188-2.187 1.203 0 2.187.984 2.187 2.188 0 1.257-.984 2.187-2.188 2.187zm6.126 0c-1.258 0-2.188-.93-2.188-2.188 0-1.203.93-2.187 2.188-2.187 1.203 0 2.187.984 2.187 2.188 0 1.257-.984 2.187-2.188 2.187zm15.312-15.75h2.898c.493 0 .93.219 1.258.547l2.953 2.953h-7.109v-3.5zm3.5 15.75a2.591 2.591 0 01-2.625-2.625 2.626 2.626 0 012.625-2.625c1.422 0 2.625 1.203 2.625 2.625a2.626 2.626 0 01-2.625 2.625zm4.375-5.25h-.93a4.295 4.295 0 00-3.445-1.75c-1.477 0-2.68.71-3.5 1.75V18h7.875v5.25zM5.687 18h.875A.431.431 0 007 17.562V9.688a.47.47 0 00-.438-.437h-.875a.431.431 0 00-.437.438v7.874c0 .274.164.438.438.438zm5.25 0h.876a.431.431 0 00.437-.438V9.688a.47.47 0 00-.438-.437h-.874a.431.431 0 00-.438.438v7.874c0 .274.164.438.438.438zm5.25 0h.875a.431.431 0 00.438-.438V9.688a.47.47 0 00-.438-.437h-.875a.431.431 0 00-.437.438v7.874c0 .274.164.438.438.438z" fill="#5C8EE6"/></svg></svg>