<svg width="1142" height="945" fill="none" xmlns="http://www.w3.org/2000/svg"><mask id="a" fill="#fff"><path d="M556.392 388.198c17.63 3.965 31.019.244 47.711.406 16.693.163 36.991 4.374 55.08 19.394 18.185 15.167 34.352 41.435 23.868 58.776-10.279 17.361-47.21 25.794-65.068 42.18-17.748 16.259-16.313 40.343-21.301 37.13-4.989-3.213-16.305-33.576-35.181-29.397-18.671 4.198-44.806 43.084-65.069 50.164-20.153 6.952-34.229-17.885-38.902-45.158-4.767-27.42.074-57.257 7.771-84.491 7.697-27.235 18.359-51.993 34.666-58.336 16.418-6.47 38.59 5.347 56.425 9.332z"/><path d="M552.464 365.413c22.371 5.037 39.36.31 60.541.517 21.181.206 46.937 5.556 69.891 24.635 23.075 19.266 43.59 52.633 30.286 74.662-13.043 22.052-59.905 32.765-82.565 53.58-22.52 20.653-20.699 51.246-27.029 47.165-6.33-4.081-20.69-42.651-44.642-37.343-23.691 5.333-56.853 54.729-82.565 63.722-25.573 8.831-43.435-22.718-49.364-57.363-6.049-34.83.095-72.732 9.861-107.326 9.767-34.595 23.296-66.045 43.988-74.102 20.832-8.219 48.967 6.792 71.598 11.853z"/><path d="M548.659 343.768c26.963 6.055 47.44.373 72.97.621s56.573 6.679 84.239 29.615c27.812 23.16 52.539 63.272 36.504 89.753-15.721 26.509-72.204 39.388-99.515 64.41-27.144 24.828-24.949 61.605-32.579 56.698-7.629-4.906-24.937-51.272-53.806-44.891-28.555 6.411-68.526 65.792-99.516 76.602-30.823 10.616-52.352-27.31-59.498-68.957-7.292-41.871.114-87.433 11.885-129.021 11.772-41.587 28.078-79.394 53.019-89.079 25.108-9.881 59.019 8.165 86.297 14.249z"/><path d="M543.38 313.009c33.334 7.502 58.649.462 90.21.769 31.562.307 69.94 8.275 104.143 36.691 34.383 28.694 64.952 78.39 45.128 111.198-19.435 32.844-89.263 48.8-123.027 79.801-33.557 30.76-30.844 76.324-40.276 70.246-9.432-6.079-30.829-63.523-66.519-55.617-35.301 7.942-84.716 81.511-123.028 94.905-38.105 13.152-64.72-33.836-73.554-85.434-9.015-51.875.14-108.325 14.693-159.849 14.553-51.524 34.711-98.364 65.545-110.364 31.04-12.241 72.963 10.116 106.685 17.654z"/><path d="M538.839 286.807c38.815 8.735 68.292.538 105.044.895 36.752.358 81.441 9.635 121.268 42.719 40.037 33.408 75.633 91.269 52.55 129.467-22.632 38.24-103.942 56.816-143.259 92.91-39.075 35.814-35.916 88.864-46.899 81.787-10.983-7.078-35.898-73.96-77.457-64.755-41.107 9.247-98.647 94.903-143.26 110.497-44.371 15.313-75.363-39.395-85.65-99.469-10.497-60.398.163-126.121 17.109-186.11 16.947-59.989 40.42-114.524 76.324-128.495 36.145-14.253 84.962 11.778 124.23 20.554z"/><path d="M534.297 260.605c44.297 9.967 77.936.614 119.879 1.022 41.942.408 92.942 10.993 138.393 48.746 45.692 38.122 86.314 104.147 59.971 147.735-25.827 43.636-118.62 64.833-163.49 106.021-44.593 40.867-40.988 101.402-53.522 93.326-12.534-8.075-40.968-84.395-88.396-73.891-46.912 10.551-112.578 108.294-163.491 126.088-50.637 17.474-86.006-44.953-97.745-113.505-11.98-68.92.186-143.916 19.525-212.37 19.34-68.453 46.128-130.684 87.102-146.627 41.25-16.263 96.961 13.44 141.774 23.455z"/><path d="M529.018 229.846c50.668 11.414 89.145.703 137.119 1.17 47.974.467 106.309 12.589 158.297 55.823 52.262 43.655 98.727 119.265 68.595 169.18-29.542 49.97-135.68 74.245-187.002 121.411-51.006 46.799-46.882 116.122-61.219 106.874-14.337-9.248-46.86-96.646-101.108-84.618-53.659 12.083-128.768 124.014-187.003 144.392-57.92 20.01-98.375-51.479-111.803-129.982-13.702-78.924.213-164.808 22.334-243.198 22.12-78.39 52.761-149.654 99.628-167.912 47.182-18.624 110.905 15.391 162.162 26.86z"/><path d="M524.231 202.505c56.446 12.7 99.311.782 152.755 1.302 53.445.52 118.432 14.007 176.348 62.112 58.222 48.574 109.985 132.704 76.418 188.243-32.911 55.6-151.152 82.61-208.327 135.091-56.823 52.072-52.229 129.206-68.2 118.916-15.972-10.29-52.204-107.536-112.638-94.152-59.778 13.445-143.453 137.988-208.328 160.661-64.525 22.265-109.594-57.279-124.553-144.627-15.264-87.818.238-183.378 24.881-270.601 24.643-87.223 58.778-166.517 110.989-186.831 52.563-20.723 123.552 17.125 180.655 29.886z"/><path d="M518.339 168.328c63.557 14.308 111.822.881 172 1.467 60.178.586 133.352 15.781 198.565 69.975 65.557 54.723 123.846 149.501 86.045 212.071-37.057 62.638-170.195 93.067-234.573 152.191-63.982 58.663-58.808 145.561-76.792 133.968-17.984-11.592-58.781-121.147-126.829-106.069-67.309 15.146-161.525 155.454-234.574 180.997-72.654 25.083-123.4-64.529-140.244-162.934-17.188-98.934.267-206.59 28.015-304.854 27.748-98.264 66.184-187.595 124.973-210.481 59.184-23.346 139.117 19.293 203.414 33.669z"/><path d="M512.201 133.012c70.964 15.969 124.855.983 192.047 1.637 67.191.654 148.894 17.614 221.707 78.1 73.198 61.076 138.275 166.859 96.075 236.693-41.377 69.911-190.032 103.873-261.913 169.861-71.439 65.475-65.663 162.462-85.742 149.523-20.08-12.938-65.632-135.213-141.611-118.385-75.154 16.905-180.351 173.504-261.914 202.013-81.121 27.995-137.783-72.022-156.589-181.852-19.191-110.42.298-230.577 31.28-340.249 30.982-109.673 73.897-209.376 139.538-234.919 66.082-26.056 155.331 21.533 227.122 37.578z"/><path d="M505.449 94.279c79.113 17.791 139.192 1.095 214.099 1.824 74.906.728 165.99 19.622 247.164 87.01 81.598 68.044 154.148 185.896 107.108 263.698-46.13 77.887-211.853 115.724-291.988 189.241-79.642 72.945-73.202 180.998-95.588 166.583-22.385-14.415-73.167-150.64-157.871-131.892-83.783 18.834-201.059 193.299-291.987 225.061-90.436 31.19-153.603-80.239-174.57-202.6-21.394-123.018.334-256.884 34.873-379.07 34.539-122.185 82.382-233.264 155.56-261.72 73.67-29.03 173.167 23.989 253.2 41.865z"/><path d="M498.698 55.545c87.261 19.613 153.528 1.208 236.15 2.01 82.621.804 183.087 21.633 272.622 95.922 90.01 75.013 170.03 204.934 118.14 290.704-50.88 85.863-233.675 127.575-322.063 208.621-87.845 80.415-80.742 199.534-105.433 183.643-24.691-15.892-80.703-166.068-174.131-145.399-92.412 20.762-221.767 213.094-322.061 248.109-99.75 34.383-169.424-88.457-192.55-223.349-23.597-135.616.368-283.191 38.464-417.89C85.933 163.217 138.704 40.764 219.42 9.392 300.676-22.61 410.421 35.84 498.698 55.545z"/><path d="M559.707 407.564c13.63 3.055 23.98.189 36.886.314 12.905.125 28.597 3.369 42.582 14.938 14.059 11.682 26.558 31.916 18.453 45.274-7.947 13.372-36.499 19.868-50.305 32.49-13.721 12.524-12.612 31.075-16.468 28.6-3.857-2.475-12.606-25.863-27.199-22.644-14.435 3.233-34.639 33.187-50.305 38.64-15.581 5.355-26.463-13.776-30.075-34.784-3.686-21.121.057-44.104 6.007-65.081 5.951-20.978 14.194-40.049 26.801-44.934 12.692-4.984 29.834 4.118 43.623 7.187z"/><path d="M562.898 425.792c9.778 2.197 17.204.135 26.462.225s20.515 2.424 30.548 10.745c10.086 8.404 19.053 22.958 13.238 32.566-5.701 9.618-26.184 14.291-36.088 23.37-9.844 9.008-9.048 22.352-11.814 20.572-2.767-1.78-9.043-18.603-19.512-16.288-10.356 2.326-24.85 23.871-36.089 27.794-11.177 3.851-18.984-9.909-21.576-25.02-2.644-15.192.041-31.724 4.31-46.813 4.269-15.089 10.182-28.807 19.227-32.321 9.105-3.585 21.402 2.962 31.294 5.17z"/><path d="M565.722 441.741c6.37 1.447 11.208.089 17.24.148 6.032.06 13.366 1.596 19.902 7.077 6.571 5.533 12.413 15.118 8.625 21.445-3.714 6.334-17.059 9.411-23.512 15.39-6.413 5.932-5.894 14.72-7.697 13.547-1.803-1.172-5.892-12.251-12.713-10.726-6.746 1.532-16.19 15.72-23.512 18.303-7.282 2.537-12.368-6.525-14.057-16.476-1.722-10.005.027-20.891 2.808-30.828 2.782-9.937 6.634-18.97 12.527-21.285 5.932-2.36 13.944 1.951 20.389 3.405z"/><path d="M567.931 454.273c3.704.857 6.517.052 10.023.087 3.507.035 7.772.946 11.572 4.194 3.82 3.279 7.217 8.959 5.014 12.708-2.159 3.754-9.918 5.577-13.67 9.12-3.728 3.516-3.427 8.723-4.475 8.028-1.048-.695-3.425-7.26-7.391-6.356-3.922.908-9.413 9.316-13.67 10.846-4.233 1.503-7.191-3.867-8.172-9.764-1.002-5.928.015-12.38 1.632-18.268 1.617-5.889 3.857-11.242 7.283-12.613 3.449-1.399 8.107 1.156 11.854 2.018z"/></mask><path d="M556.392 388.198c17.63 3.965 31.019.244 47.711.406 16.693.163 36.991 4.374 55.08 19.394 18.185 15.167 34.352 41.435 23.868 58.776-10.279 17.361-47.21 25.794-65.068 42.18-17.748 16.259-16.313 40.343-21.301 37.13-4.989-3.213-16.305-33.576-35.181-29.397-18.671 4.198-44.806 43.084-65.069 50.164-20.153 6.952-34.229-17.885-38.902-45.158-4.767-27.42.074-57.257 7.771-84.491 7.697-27.235 18.359-51.993 34.666-58.336 16.418-6.47 38.59 5.347 56.425 9.332z" stroke="url(#paint0_linear)" stroke-width="2" mask="url(#a)"/><path d="M552.464 365.413c22.371 5.037 39.36.31 60.541.517 21.181.206 46.937 5.556 69.891 24.635 23.075 19.266 43.59 52.633 30.286 74.662-13.043 22.052-59.905 32.765-82.565 53.58-22.52 20.653-20.699 51.246-27.029 47.165-6.33-4.081-20.69-42.651-44.642-37.343-23.691 5.333-56.853 54.729-82.565 63.722-25.573 8.831-43.435-22.718-49.364-57.363-6.049-34.83.095-72.732 9.861-107.326 9.767-34.595 23.296-66.045 43.988-74.102 20.832-8.219 48.967 6.792 71.598 11.853z" stroke="url(#paint1_linear)" stroke-width="2" mask="url(#a)"/><path d="M548.659 343.768c26.963 6.055 47.44.373 72.97.621s56.573 6.679 84.239 29.615c27.812 23.16 52.539 63.272 36.504 89.753-15.721 26.509-72.204 39.388-99.515 64.41-27.144 24.828-24.949 61.605-32.579 56.698-7.629-4.906-24.937-51.272-53.806-44.891-28.555 6.411-68.526 65.792-99.516 76.602-30.823 10.616-52.352-27.31-59.498-68.957-7.292-41.871.114-87.433 11.885-129.021 11.772-41.587 28.078-79.394 53.019-89.079 25.108-9.881 59.019 8.165 86.297 14.249z" stroke="url(#paint2_linear)" stroke-width="2" mask="url(#a)"/><path d="M543.38 313.009c33.334 7.502 58.649.462 90.21.769 31.562.307 69.94 8.275 104.143 36.691 34.383 28.694 64.952 78.39 45.128 111.198-19.435 32.844-89.263 48.8-123.027 79.801-33.557 30.76-30.844 76.324-40.276 70.246-9.432-6.079-30.829-63.523-66.519-55.617-35.301 7.942-84.716 81.511-123.028 94.905-38.105 13.152-64.72-33.836-73.554-85.434-9.015-51.875.14-108.325 14.693-159.849 14.553-51.524 34.711-98.364 65.545-110.364 31.04-12.241 72.963 10.116 106.685 17.654z" stroke="url(#paint3_linear)" stroke-width="2" mask="url(#a)"/><path d="M538.839 286.807c38.815 8.735 68.292.538 105.044.895 36.752.358 81.441 9.635 121.268 42.719 40.037 33.408 75.633 91.269 52.55 129.467-22.632 38.24-103.942 56.816-143.259 92.91-39.075 35.814-35.916 88.864-46.899 81.787-10.983-7.078-35.898-73.96-77.457-64.755-41.107 9.247-98.647 94.903-143.26 110.497-44.371 15.313-75.363-39.395-85.65-99.469-10.497-60.398.163-126.121 17.109-186.11 16.947-59.989 40.42-114.524 76.324-128.495 36.145-14.253 84.962 11.778 124.23 20.554z" stroke="url(#paint4_linear)" stroke-width="2" mask="url(#a)"/><path d="M534.297 260.605c44.297 9.967 77.936.614 119.879 1.022 41.942.408 92.942 10.993 138.393 48.746 45.692 38.122 86.314 104.147 59.971 147.735-25.827 43.636-118.62 64.833-163.49 106.021-44.593 40.867-40.988 101.402-53.522 93.326-12.534-8.075-40.968-84.395-88.396-73.891-46.912 10.551-112.578 108.294-163.491 126.088-50.637 17.474-86.006-44.953-97.745-113.505-11.98-68.92.186-143.916 19.525-212.37 19.34-68.453 46.128-130.684 87.102-146.627 41.25-16.263 96.961 13.44 141.774 23.455z" stroke="url(#paint5_linear)" stroke-width="2" mask="url(#a)"/><path d="M529.018 229.846c50.668 11.414 89.145.703 137.119 1.17 47.974.467 106.309 12.589 158.297 55.823 52.262 43.655 98.727 119.265 68.595 169.18-29.542 49.97-135.68 74.245-187.002 121.411-51.006 46.799-46.882 116.122-61.219 106.874-14.337-9.248-46.86-96.646-101.108-84.618-53.659 12.083-128.768 124.014-187.003 144.392-57.92 20.01-98.375-51.479-111.803-129.982-13.702-78.924.213-164.808 22.334-243.198 22.12-78.39 52.761-149.654 99.628-167.912 47.182-18.624 110.905 15.391 162.162 26.86z" stroke="url(#paint6_linear)" stroke-width="2" mask="url(#a)"/><path d="M524.231 202.505c56.446 12.7 99.311.782 152.755 1.302 53.445.52 118.432 14.007 176.348 62.112 58.222 48.574 109.985 132.704 76.418 188.243-32.911 55.6-151.152 82.61-208.327 135.091-56.823 52.072-52.229 129.206-68.2 118.916-15.972-10.29-52.204-107.536-112.638-94.152-59.778 13.445-143.453 137.988-208.328 160.661-64.525 22.265-109.594-57.279-124.553-144.627-15.264-87.818.238-183.378 24.881-270.601 24.643-87.223 58.778-166.517 110.989-186.831 52.563-20.723 123.552 17.125 180.655 29.886z" stroke="url(#paint7_linear)" stroke-width="2" mask="url(#a)"/><path d="M518.339 168.328c63.557 14.308 111.822.881 172 1.467 60.178.586 133.352 15.781 198.565 69.975 65.557 54.723 123.846 149.501 86.045 212.071-37.057 62.638-170.195 93.067-234.573 152.191-63.982 58.663-58.808 145.561-76.792 133.968-17.984-11.592-58.781-121.147-126.829-106.069-67.309 15.146-161.525 155.454-234.574 180.997-72.654 25.083-123.4-64.529-140.244-162.934-17.188-98.934.267-206.59 28.015-304.854 27.748-98.264 66.184-187.595 124.973-210.481 59.184-23.346 139.117 19.293 203.414 33.669z" stroke="url(#paint8_linear)" stroke-width="2" mask="url(#a)"/><path d="M512.201 133.012c70.964 15.969 124.855.983 192.047 1.637 67.191.654 148.894 17.614 221.707 78.1 73.198 61.076 138.275 166.859 96.075 236.693-41.377 69.911-190.032 103.873-261.913 169.861-71.439 65.475-65.663 162.462-85.742 149.523-20.08-12.938-65.632-135.213-141.611-118.385-75.154 16.905-180.351 173.504-261.914 202.013-81.121 27.995-137.783-72.022-156.589-181.852-19.191-110.42.298-230.577 31.28-340.249 30.982-109.673 73.897-209.376 139.538-234.919 66.082-26.056 155.331 21.533 227.122 37.578z" stroke="url(#paint9_linear)" stroke-width="2" mask="url(#a)"/><path d="M505.449 94.279c79.113 17.791 139.192 1.095 214.099 1.824 74.906.728 165.99 19.622 247.164 87.01 81.598 68.044 154.148 185.896 107.108 263.698-46.13 77.887-211.853 115.724-291.988 189.241-79.642 72.945-73.202 180.998-95.588 166.583-22.385-14.415-73.167-150.64-157.871-131.892-83.783 18.834-201.059 193.299-291.987 225.061-90.436 31.19-153.603-80.239-174.57-202.6-21.394-123.018.334-256.884 34.873-379.07 34.539-122.185 82.382-233.264 155.56-261.72 73.67-29.03 173.167 23.989 253.2 41.865z" stroke="url(#paint10_linear)" stroke-width="2" mask="url(#a)"/><path d="M498.698 55.545c87.261 19.613 153.528 1.208 236.15 2.01 82.621.804 183.087 21.633 272.622 95.922 90.01 75.013 170.03 204.934 118.14 290.704-50.88 85.863-233.675 127.575-322.063 208.621-87.845 80.415-80.742 199.534-105.433 183.643-24.691-15.892-80.703-166.068-174.131-145.399-92.412 20.762-221.767 213.094-322.061 248.109-99.75 34.383-169.424-88.457-192.55-223.349-23.597-135.616.368-283.191 38.464-417.89C85.933 163.217 138.704 40.764 219.42 9.392 300.676-22.61 410.421 35.84 498.698 55.545z" stroke="url(#paint11_linear)" stroke-width="2" mask="url(#a)"/><path d="M559.707 407.564c13.63 3.055 23.98.189 36.886.314 12.905.125 28.597 3.369 42.582 14.938 14.059 11.682 26.558 31.916 18.453 45.274-7.947 13.372-36.499 19.868-50.305 32.49-13.721 12.524-12.612 31.075-16.468 28.6-3.857-2.475-12.606-25.863-27.199-22.644-14.435 3.233-34.639 33.187-50.305 38.64-15.581 5.355-26.463-13.776-30.075-34.784-3.686-21.121.057-44.104 6.007-65.081 5.951-20.978 14.194-40.049 26.801-44.934 12.692-4.984 29.834 4.118 43.623 7.187z" stroke="url(#paint12_linear)" stroke-width="2" mask="url(#a)"/><path d="M562.898 425.792c9.778 2.197 17.204.135 26.462.225s20.515 2.424 30.548 10.745c10.086 8.404 19.053 22.958 13.238 32.566-5.701 9.618-26.184 14.291-36.088 23.37-9.844 9.008-9.048 22.352-11.814 20.572-2.767-1.78-9.043-18.603-19.512-16.288-10.356 2.326-24.85 23.871-36.089 27.794-11.177 3.851-18.984-9.909-21.576-25.02-2.644-15.192.041-31.724 4.31-46.813 4.269-15.089 10.182-28.807 19.227-32.321 9.105-3.585 21.402 2.962 31.294 5.17z" stroke="url(#paint13_linear)" stroke-width="2" mask="url(#a)"/><path d="M565.722 441.741c6.37 1.447 11.208.089 17.24.148 6.032.06 13.366 1.596 19.902 7.077 6.571 5.533 12.413 15.118 8.625 21.445-3.714 6.334-17.059 9.411-23.512 15.39-6.413 5.932-5.894 14.72-7.697 13.547-1.803-1.172-5.892-12.251-12.713-10.726-6.746 1.532-16.19 15.72-23.512 18.303-7.282 2.537-12.368-6.525-14.057-16.476-1.722-10.005.027-20.891 2.808-30.828 2.782-9.937 6.634-18.97 12.527-21.285 5.932-2.36 13.944 1.951 20.389 3.405z" stroke="url(#paint14_linear)" stroke-width="2" mask="url(#a)"/><path d="M567.931 454.273c3.704.857 6.517.052 10.023.087 3.507.035 7.772.946 11.572 4.194 3.82 3.279 7.217 8.959 5.014 12.708-2.159 3.754-9.918 5.577-13.67 9.12-3.728 3.516-3.427 8.723-4.475 8.028-1.048-.695-3.425-7.26-7.391-6.356-3.922.908-9.413 9.316-13.67 10.846-4.233 1.503-7.191-3.867-8.172-9.764-1.002-5.928.015-12.38 1.632-18.268 1.617-5.889 3.857-11.242 7.283-12.613 3.449-1.399 8.107 1.156 11.854 2.018z" stroke="url(#paint15_linear)" stroke-width="2" mask="url(#a)"/><defs><linearGradient id="paint0_linear" x1="100.337" y1="52.93" x2="556.249" y2="502.37" gradientUnits="userSpaceOnUse"><stop stop-color="#fff" stop-opacity=".1"/><stop offset="1" stop-color="#fff" stop-opacity=".04"/></linearGradient><linearGradient id="paint1_linear" x1="100.337" y1="52.93" x2="556.249" y2="502.37" gradientUnits="userSpaceOnUse"><stop stop-color="#fff" stop-opacity=".1"/><stop offset="1" stop-color="#fff" stop-opacity=".04"/></linearGradient><linearGradient id="paint2_linear" x1="100.337" y1="52.93" x2="556.249" y2="502.37" gradientUnits="userSpaceOnUse"><stop stop-color="#fff" stop-opacity=".1"/><stop offset="1" stop-color="#fff" stop-opacity=".04"/></linearGradient><linearGradient id="paint3_linear" x1="100.337" y1="52.93" x2="556.249" y2="502.37" gradientUnits="userSpaceOnUse"><stop stop-color="#fff" stop-opacity=".1"/><stop offset="1" stop-color="#fff" stop-opacity=".04"/></linearGradient><linearGradient id="paint4_linear" x1="100.337" y1="52.93" x2="556.249" y2="502.37" gradientUnits="userSpaceOnUse"><stop stop-color="#fff" stop-opacity=".1"/><stop offset="1" stop-color="#fff" stop-opacity=".04"/></linearGradient><linearGradient id="paint5_linear" x1="100.337" y1="52.93" x2="556.249" y2="502.37" gradientUnits="userSpaceOnUse"><stop stop-color="#fff" stop-opacity=".1"/><stop offset="1" stop-color="#fff" stop-opacity=".04"/></linearGradient><linearGradient id="paint6_linear" x1="100.337" y1="52.93" x2="556.249" y2="502.37" gradientUnits="userSpaceOnUse"><stop stop-color="#fff" stop-opacity=".1"/><stop offset="1" stop-color="#fff" stop-opacity=".04"/></linearGradient><linearGradient id="paint7_linear" x1="100.337" y1="52.93" x2="556.249" y2="502.37" gradientUnits="userSpaceOnUse"><stop stop-color="#fff" stop-opacity=".1"/><stop offset="1" stop-color="#fff" stop-opacity=".04"/></linearGradient><linearGradient id="paint8_linear" x1="100.337" y1="52.93" x2="556.249" y2="502.37" gradientUnits="userSpaceOnUse"><stop stop-color="#fff" stop-opacity=".1"/><stop offset="1" stop-color="#fff" stop-opacity=".04"/></linearGradient><linearGradient id="paint9_linear" x1="100.337" y1="52.93" x2="556.249" y2="502.37" gradientUnits="userSpaceOnUse"><stop stop-color="#fff" stop-opacity=".1"/><stop offset="1" stop-color="#fff" stop-opacity=".04"/></linearGradient><linearGradient id="paint10_linear" x1="100.337" y1="52.93" x2="556.249" y2="502.37" gradientUnits="userSpaceOnUse"><stop stop-color="#fff" stop-opacity=".1"/><stop offset="1" stop-color="#fff" stop-opacity=".04"/></linearGradient><linearGradient id="paint11_linear" x1="100.337" y1="52.93" x2="556.249" y2="502.37" gradientUnits="userSpaceOnUse"><stop stop-color="#fff" stop-opacity=".1"/><stop offset="1" stop-color="#fff" stop-opacity=".04"/></linearGradient><linearGradient id="paint12_linear" x1="100.337" y1="52.93" x2="556.249" y2="502.37" gradientUnits="userSpaceOnUse"><stop stop-color="#fff" stop-opacity=".1"/><stop offset="1" stop-color="#fff" stop-opacity=".04"/></linearGradient><linearGradient id="paint13_linear" x1="100.337" y1="52.93" x2="556.249" y2="502.37" gradientUnits="userSpaceOnUse"><stop stop-color="#fff" stop-opacity=".1"/><stop offset="1" stop-color="#fff" stop-opacity=".04"/></linearGradient><linearGradient id="paint14_linear" x1="100.337" y1="52.93" x2="556.249" y2="502.37" gradientUnits="userSpaceOnUse"><stop stop-color="#fff" stop-opacity=".1"/><stop offset="1" stop-color="#fff" stop-opacity=".04"/></linearGradient><linearGradient id="paint15_linear" x1="100.337" y1="52.93" x2="556.249" y2="502.37" gradientUnits="userSpaceOnUse"><stop stop-color="#fff" stop-opacity=".1"/><stop offset="1" stop-color="#fff" stop-opacity=".04"/></linearGradient></defs></svg>